<svg xmlns="http://www.w3.org/2000/svg" width="31" height="31" viewBox="0 0 31 31" fill="none">
<path fill-rule="evenodd" clip-rule="evenodd" d="M2.94966 10.5502C0.215995 13.2838 0.215998 17.716 2.94967 20.4497L10.5502 28.0502C13.2838 30.7838 17.716 30.7838 20.4497 28.0502L28.0502 20.4497C30.7838 17.716 30.7838 13.2838 28.0502 10.5502L20.4497 2.94966C17.716 0.215995 13.2838 0.215999 10.5502 2.94967L2.94966 10.5502ZM17.1064 8.27327H14.2084V20.4773C14.2084 20.9693 14.1364 21.3293 13.9924 21.5573C13.8604 21.7973 13.6324 21.9173 13.3084 21.9173C12.9364 21.9173 12.6124 21.8633 12.3364 21.7553L12.2284 23.8973C12.5164 24.0773 13.1344 24.1673 14.0824 24.1673C15.0664 24.1673 15.8164 23.8613 16.3324 23.2493C16.8484 22.6613 17.1064 21.7253 17.1064 20.4413V8.27327Z" fill="url(#paint0_linear_222_633)"/>
<defs>
<linearGradient id="paint0_linear_222_633" x1="-0.0157508" y1="15.2928" x2="31.8826" y2="15.2928" gradientUnits="userSpaceOnUse">
<stop stop-color="#5EE7B9"/>
<stop offset="1" stop-color="#A9FA88"/>
</linearGradient>
</defs>
</svg>