<svg width="135" height="43" viewBox="0 0 135 43" fill="none" xmlns="http://www.w3.org/2000/svg">
<path d="M0.528907 0.599997H17.3889V42H8.02891V7.26H0.528907V0.599997ZM59.3153 20.88C59.3153 28.16 57.4553 33.74 53.7353 37.62C50.5353 40.98 46.3353 42.66 41.1353 42.66C35.9753 42.66 31.6753 41.3 28.2353 38.58L31.7153 32.28C32.3153 32.88 33.4953 33.54 35.2553 34.26C37.0553 34.94 38.8953 35.28 40.7753 35.28C43.2553 35.28 45.2953 34.44 46.8953 32.76C49.0153 30.52 50.0753 27.22 50.0753 22.86C49.3553 24.18 48.0953 25.28 46.2953 26.16C44.5353 27.04 42.3353 27.48 39.6953 27.48C36.2553 27.48 33.2553 26.34 30.6953 24.06C28.1753 21.78 26.9153 18.68 26.9153 14.76C26.9153 10.56 28.3153 7.06 31.1153 4.26C33.9553 1.42 37.7153 -2.86102e-06 42.3953 -2.86102e-06C48.0353 -2.86102e-06 52.4753 2.3 55.7153 6.9C58.1153 10.34 59.3153 15 59.3153 20.88ZM49.4153 13.92C49.4153 11.96 48.7953 10.34 47.5553 9.06C46.3553 7.74 44.7553 7.08 42.7553 7.08C40.7553 7.08 39.1553 7.74 37.9553 9.06C36.7553 10.34 36.1553 11.96 36.1553 13.92C36.1553 15.84 36.7553 17.46 37.9553 18.78C39.1953 20.1 40.7953 20.76 42.7553 20.76C44.7553 20.76 46.3553 20.1 47.5553 18.78C48.7953 17.46 49.4153 15.84 49.4153 13.92ZM96.8739 20.88C96.8739 28.16 95.0139 33.74 91.2939 37.62C88.0939 40.98 83.8939 42.66 78.6939 42.66C73.5339 42.66 69.2339 41.3 65.7939 38.58L69.2739 32.28C69.8739 32.88 71.0539 33.54 72.8139 34.26C74.6139 34.94 76.4539 35.28 78.3339 35.28C80.8139 35.28 82.8539 34.44 84.4539 32.76C86.5739 30.52 87.6339 27.22 87.6339 22.86C86.9139 24.18 85.6539 25.28 83.8539 26.16C82.0939 27.04 79.8939 27.48 77.2539 27.48C73.8139 27.48 70.8139 26.34 68.2539 24.06C65.7339 21.78 64.4739 18.68 64.4739 14.76C64.4739 10.56 65.8739 7.06 68.6739 4.26C71.5139 1.42 75.2739 -2.86102e-06 79.9539 -2.86102e-06C85.5939 -2.86102e-06 90.0339 2.3 93.2739 6.9C95.6739 10.34 96.8739 15 96.8739 20.88ZM86.9739 13.92C86.9739 11.96 86.3539 10.34 85.1139 9.06C83.9139 7.74 82.3139 7.08 80.3139 7.08C78.3139 7.08 76.7139 7.74 75.5139 9.06C74.3139 10.34 73.7139 11.96 73.7139 13.92C73.7139 15.84 74.3139 17.46 75.5139 18.78C76.7539 20.1 78.3539 20.76 80.3139 20.76C82.3139 20.76 83.9139 20.1 85.1139 18.78C86.3539 17.46 86.9739 15.84 86.9739 13.92ZM134.433 20.88C134.433 28.16 132.573 33.74 128.853 37.62C125.653 40.98 121.453 42.66 116.253 42.66C111.093 42.66 106.793 41.3 103.353 38.58L106.833 32.28C107.433 32.88 108.613 33.54 110.373 34.26C112.173 34.94 114.013 35.28 115.893 35.28C118.373 35.28 120.413 34.44 122.013 32.76C124.133 30.52 125.193 27.22 125.193 22.86C124.473 24.18 123.213 25.28 121.413 26.16C119.653 27.04 117.453 27.48 114.812 27.48C111.373 27.48 108.373 26.34 105.813 24.06C103.293 21.78 102.033 18.68 102.033 14.76C102.033 10.56 103.433 7.06 106.233 4.26C109.073 1.42 112.833 -2.86102e-06 117.513 -2.86102e-06C123.153 -2.86102e-06 127.593 2.3 130.833 6.9C133.233 10.34 134.433 15 134.433 20.88ZM124.533 13.92C124.533 11.96 123.913 10.34 122.673 9.06C121.473 7.74 119.873 7.08 117.873 7.08C115.873 7.08 114.273 7.74 113.073 9.06C111.873 10.34 111.273 11.96 111.273 13.92C111.273 15.84 111.873 17.46 113.073 18.78C114.313 20.1 115.913 20.76 117.873 20.76C119.873 20.76 121.473 20.1 122.673 18.78C123.913 17.46 124.533 15.84 124.533 13.92Z" fill="#232C3C"/>
</svg>
