<svg width="50" height="376" viewBox="0 0 50 376" fill="none" xmlns="http://www.w3.org/2000/svg">
<path d="M10.3002 0.899995H35.5902V63H21.5502V10.89H10.3002V0.899995ZM49.2611 135.32C49.2611 146.24 46.4711 154.61 40.8911 160.43C36.0911 165.47 29.7911 167.99 21.9911 167.99C14.2511 167.99 7.80106 165.95 2.64106 161.87L7.86106 152.42C8.76105 153.32 10.5311 154.31 13.1711 155.39C15.8711 156.41 18.6311 156.92 21.4511 156.92C25.1711 156.92 28.2311 155.66 30.6311 153.14C33.8111 149.78 35.4011 144.83 35.4011 138.29C34.3211 140.27 32.4311 141.92 29.7311 143.24C27.0911 144.56 23.7911 145.22 19.8311 145.22C14.6711 145.22 10.1711 143.51 6.33105 140.09C2.55105 136.67 0.661055 132.02 0.661055 126.14C0.661055 119.84 2.76105 114.59 6.96106 110.39C11.2211 106.13 16.8611 104 23.8811 104C32.3411 104 39.0011 107.45 43.8611 114.35C47.4611 119.51 49.2611 126.5 49.2611 135.32ZM34.4111 124.88C34.4111 121.94 33.4811 119.51 31.6211 117.59C29.8211 115.61 27.4211 114.62 24.4211 114.62C21.4211 114.62 19.0211 115.61 17.2211 117.59C15.4211 119.51 14.5211 121.94 14.5211 124.88C14.5211 127.76 15.4211 130.19 17.2211 132.17C19.0811 134.15 21.4811 135.14 24.4211 135.14C27.4211 135.14 29.8211 134.15 31.6211 132.17C33.4811 130.19 34.4111 127.76 34.4111 124.88ZM49.2611 239.32C49.2611 250.24 46.4711 258.61 40.8911 264.43C36.0911 269.47 29.7911 271.99 21.9911 271.99C14.2511 271.99 7.80106 269.95 2.64106 265.87L7.86106 256.42C8.76105 257.32 10.5311 258.31 13.1711 259.39C15.8711 260.41 18.6311 260.92 21.4511 260.92C25.1711 260.92 28.2311 259.66 30.6311 257.14C33.8111 253.78 35.4011 248.83 35.4011 242.29C34.3211 244.27 32.4311 245.92 29.7311 247.24C27.0911 248.56 23.7911 249.22 19.8311 249.22C14.6711 249.22 10.1711 247.51 6.33105 244.09C2.55105 240.67 0.661055 236.02 0.661055 230.14C0.661055 223.84 2.76105 218.59 6.96106 214.39C11.2211 210.13 16.8611 208 23.8811 208C32.3411 208 39.0011 211.45 43.8611 218.35C47.4611 223.51 49.2611 230.5 49.2611 239.32ZM34.4111 228.88C34.4111 225.94 33.4811 223.51 31.6211 221.59C29.8211 219.61 27.4211 218.62 24.4211 218.62C21.4211 218.62 19.0211 219.61 17.2211 221.59C15.4211 223.51 14.5211 225.94 14.5211 228.88C14.5211 231.76 15.4211 234.19 17.2211 236.17C19.0811 238.15 21.4811 239.14 24.4211 239.14C27.4211 239.14 29.8211 238.15 31.6211 236.17C33.4811 234.19 34.4111 231.76 34.4111 228.88ZM49.2611 343.32C49.2611 354.24 46.4711 362.61 40.8911 368.43C36.0911 373.47 29.7911 375.99 21.9911 375.99C14.2511 375.99 7.80106 373.95 2.64106 369.87L7.86106 360.42C8.76105 361.32 10.5311 362.31 13.1711 363.39C15.8711 364.41 18.6311 364.92 21.4511 364.92C25.1711 364.92 28.2311 363.66 30.6311 361.14C33.8111 357.78 35.4011 352.83 35.4011 346.29C34.3211 348.27 32.4311 349.92 29.7311 351.24C27.0911 352.56 23.7911 353.22 19.8311 353.22C14.6711 353.22 10.1711 351.51 6.33105 348.09C2.55105 344.67 0.661055 340.02 0.661055 334.14C0.661055 327.84 2.76105 322.59 6.96106 318.39C11.2211 314.13 16.8611 312 23.8811 312C32.3411 312 39.0011 315.45 43.8611 322.35C47.4611 327.51 49.2611 334.5 49.2611 343.32ZM34.4111 332.88C34.4111 329.94 33.4811 327.51 31.6211 325.59C29.8211 323.61 27.4211 322.62 24.4211 322.62C21.4211 322.62 19.0211 323.61 17.2211 325.59C15.4211 327.51 14.5211 329.94 14.5211 332.88C14.5211 335.76 15.4211 338.19 17.2211 340.17C19.0811 342.15 21.4811 343.14 24.4211 343.14C27.4211 343.14 29.8211 342.15 31.6211 340.17C33.4811 338.19 34.4111 335.76 34.4111 332.88Z" fill="#232C3C"/>
</svg>
