<svg width="134" height="43" viewBox="0 0 134 43" fill="none" xmlns="http://www.w3.org/2000/svg">
<path d="M0.0289066 0.599997H16.8889V42H7.52891V7.26H0.0289066V0.599997ZM58.8153 20.88C58.8153 28.16 56.9553 33.74 53.2353 37.62C50.0353 40.98 45.8353 42.66 40.6353 42.66C35.4753 42.66 31.1753 41.3 27.7353 38.58L31.2153 32.28C31.8153 32.88 32.9953 33.54 34.7553 34.26C36.5553 34.94 38.3953 35.28 40.2753 35.28C42.7553 35.28 44.7953 34.44 46.3953 32.76C48.5153 30.52 49.5753 27.22 49.5753 22.86C48.8553 24.18 47.5953 25.28 45.7953 26.16C44.0353 27.04 41.8353 27.48 39.1953 27.48C35.7553 27.48 32.7553 26.34 30.1953 24.06C27.6753 21.78 26.4153 18.68 26.4153 14.76C26.4153 10.56 27.8153 7.06 30.6153 4.26C33.4553 1.42 37.2153 -2.86102e-06 41.8953 -2.86102e-06C47.5353 -2.86102e-06 51.9753 2.3 55.2153 6.9C57.6153 10.34 58.8153 15 58.8153 20.88ZM48.9153 13.92C48.9153 11.96 48.2953 10.34 47.0553 9.06C45.8553 7.74 44.2553 7.08 42.2553 7.08C40.2553 7.08 38.6553 7.74 37.4553 9.06C36.2553 10.34 35.6553 11.96 35.6553 13.92C35.6553 15.84 36.2553 17.46 37.4553 18.78C38.6953 20.1 40.2953 20.76 42.2553 20.76C44.2553 20.76 45.8553 20.1 47.0553 18.78C48.2953 17.46 48.9153 15.84 48.9153 13.92ZM96.3739 20.88C96.3739 28.16 94.5139 33.74 90.7939 37.62C87.5939 40.98 83.3939 42.66 78.1939 42.66C73.0339 42.66 68.7339 41.3 65.2939 38.58L68.7739 32.28C69.3739 32.88 70.5539 33.54 72.3139 34.26C74.1139 34.94 75.9539 35.28 77.8339 35.28C80.3139 35.28 82.3539 34.44 83.9539 32.76C86.0739 30.52 87.1339 27.22 87.1339 22.86C86.4139 24.18 85.1539 25.28 83.3539 26.16C81.5939 27.04 79.3939 27.48 76.7539 27.48C73.3139 27.48 70.3139 26.34 67.7539 24.06C65.2339 21.78 63.9739 18.68 63.9739 14.76C63.9739 10.56 65.3739 7.06 68.1739 4.26C71.0139 1.42 74.7739 -2.86102e-06 79.4539 -2.86102e-06C85.0939 -2.86102e-06 89.5339 2.3 92.7739 6.9C95.1739 10.34 96.3739 15 96.3739 20.88ZM86.4739 13.92C86.4739 11.96 85.8539 10.34 84.6139 9.06C83.4139 7.74 81.8139 7.08 79.8139 7.08C77.8139 7.08 76.2139 7.74 75.0139 9.06C73.8139 10.34 73.2139 11.96 73.2139 13.92C73.2139 15.84 73.8139 17.46 75.0139 18.78C76.2539 20.1 77.8539 20.76 79.8139 20.76C81.8139 20.76 83.4139 20.1 84.6139 18.78C85.8539 17.46 86.4739 15.84 86.4739 13.92ZM133.933 20.88C133.933 28.16 132.073 33.74 128.353 37.62C125.153 40.98 120.953 42.66 115.753 42.66C110.593 42.66 106.293 41.3 102.853 38.58L106.333 32.28C106.933 32.88 108.113 33.54 109.873 34.26C111.673 34.94 113.513 35.28 115.393 35.28C117.873 35.28 119.913 34.44 121.513 32.76C123.633 30.52 124.693 27.22 124.693 22.86C123.973 24.18 122.713 25.28 120.913 26.16C119.153 27.04 116.953 27.48 114.312 27.48C110.873 27.48 107.873 26.34 105.313 24.06C102.793 21.78 101.533 18.68 101.533 14.76C101.533 10.56 102.933 7.06 105.733 4.26C108.573 1.42 112.333 -2.86102e-06 117.013 -2.86102e-06C122.653 -2.86102e-06 127.093 2.3 130.333 6.9C132.733 10.34 133.933 15 133.933 20.88ZM124.033 13.92C124.033 11.96 123.413 10.34 122.173 9.06C120.973 7.74 119.373 7.08 117.373 7.08C115.373 7.08 113.773 7.74 112.573 9.06C111.373 10.34 110.773 11.96 110.773 13.92C110.773 15.84 111.373 17.46 112.573 18.78C113.813 20.1 115.413 20.76 117.373 20.76C119.373 20.76 120.973 20.1 122.173 18.78C123.413 17.46 124.033 15.84 124.033 13.92Z" fill="#293345"/>
</svg>
