<svg width="27" height="30" viewBox="0 0 27 30" fill="none" xmlns="http://www.w3.org/2000/svg">
<g clip-path="url(#clip0_111_1384)">
<path d="M5.87578 26.2499H0.433594V8.72451H5.87578V26.2499ZM3.15176 6.33388C1.41152 6.33388 0 4.89248 0 3.15224C1.24559e-08 2.31635 0.332059 1.51469 0.923128 0.923616C1.5142 0.332547 2.31586 0.000488281 3.15176 0.000488281C3.98766 0.000488281 4.78932 0.332547 5.38039 0.923616C5.97146 1.51469 6.30352 2.31635 6.30352 3.15224C6.30352 4.89248 4.89141 6.33388 3.15176 6.33388ZM26.2441 26.2499H20.8137V17.7186C20.8137 15.6854 20.7727 13.078 17.9842 13.078C15.1547 13.078 14.7211 15.287 14.7211 17.5722V26.2499H9.28477V8.72451H14.5043V11.1151H14.5805C15.307 9.73818 17.0818 8.28506 19.7297 8.28506C25.2375 8.28506 26.25 11.912 26.25 16.6229V26.2499H26.2441Z" fill="white"/>
</g>
<defs>
<clipPath id="clip0_111_1384">
<rect width="26.25" height="30" fill="white"/>
</clipPath>
</defs>
</svg>
