<svg width="54" height="77" viewBox="0 0 54 77" fill="none" xmlns="http://www.w3.org/2000/svg">
<path d="M0 14.4063C0 6.44991 6.44992 0 14.4064 0H39.1258C47.0822 0 53.5321 6.44991 53.5321 14.4063C53.5321 19.4443 50.946 23.8784 47.0288 26.4533C50.946 29.0282 53.5321 33.4622 53.5321 38.5003C53.5321 46.4567 47.0822 52.9067 39.1258 52.9067H38.813C35.083 52.9067 31.684 51.4891 29.1256 49.1633V62.4372C29.1256 70.4997 22.507 77 14.484 77C6.54742 77 0 70.5697 0 62.5936C0 57.5558 2.58589 53.122 6.50277 50.547C2.58589 47.9721 0 43.5381 0 38.5003C0 33.4622 2.58612 29.0282 6.50327 26.4533C2.58612 23.8784 0 19.4443 0 14.4063ZM24.4066 28.8129H14.4064C9.0561 28.8129 4.71893 33.1502 4.71893 38.5003C4.71893 43.8298 9.02265 48.1542 14.3444 48.1876C14.365 48.1874 14.3856 48.1874 14.4064 48.1874H24.4066V28.8129ZM29.1256 38.5003C29.1256 43.8504 33.4627 48.1877 38.813 48.1877H39.1258C44.4761 48.1877 48.8132 43.8504 48.8132 38.5003C48.8132 33.1502 44.4761 28.8129 39.1258 28.8129H38.813C33.4627 28.8129 29.1256 33.1502 29.1256 38.5003ZM14.4064 52.9067C14.3856 52.9067 14.365 52.9065 14.3444 52.9065C9.02265 52.9398 4.71893 57.2641 4.71893 62.5936C4.71893 67.9242 9.11405 72.281 14.484 72.281C19.9404 72.281 24.4066 67.8541 24.4066 62.4372V52.9067H14.4064ZM14.4064 4.71893C9.0561 4.71893 4.71893 9.05612 4.71893 14.4063C4.71893 19.7565 9.0561 24.0936 14.4064 24.0936H24.4066V4.71893H14.4064ZM29.1256 24.0936H39.1258C44.4761 24.0936 48.8132 19.7565 48.8132 14.4063C48.8132 9.05612 44.4761 4.71893 39.1258 4.71893H29.1256V24.0936Z" fill="url(#paint0_linear_132_803)"/>
<defs>
<linearGradient id="paint0_linear_132_803" x1="0.405401" y1="38.5" x2="53.1337" y2="38.5" gradientUnits="userSpaceOnUse">
<stop stop-color="#5EE7B9"/>
<stop offset="1" stop-color="#A9FA88"/>
</linearGradient>
</defs>
</svg>
