<svg width="77" height="77" viewBox="0 0 77 77" fill="none" xmlns="http://www.w3.org/2000/svg">
<path d="M17.2889 51.9475C25.6369 52.5164 27.4209 52.3102 27.4209 53.9997C27.4209 57.4372 16.1545 57.4475 16.1545 54.2609C16.1562 53.3861 16.72 52.6453 17.2889 51.9475V51.9475ZM22.0928 31.9C16.543 31.9 16.292 39.5433 21.9639 39.5433C27.5516 39.5433 27.4141 31.9 22.0928 31.9V31.9ZM77 8.25V68.75C77 70.938 76.1308 73.0365 74.5836 74.5836C73.0365 76.1308 70.938 77 68.75 77H8.25C6.06196 77 3.96354 76.1308 2.41637 74.5836C0.869194 73.0365 0 70.938 0 68.75L0 8.25C0 6.06196 0.869194 3.96354 2.41637 2.41637C3.96354 0.869194 6.06196 0 8.25 0H68.75C70.938 0 73.0365 0.869194 74.5836 2.41637C76.1308 3.96354 77 6.06196 77 8.25V8.25ZM37.9844 20.1627C37.9844 22.6531 39.4247 24.0952 41.9134 24.0952C44.4469 24.0952 45.8889 22.6531 45.8889 20.1627C45.8889 17.6722 44.4503 16.3281 41.9169 16.3281C39.4281 16.3281 37.9844 17.6756 37.9844 20.1627ZM34.2341 28.0156H25.7177C21.4208 26.8898 11.6995 27.182 11.6995 36.0508C11.6995 39.282 13.3152 41.5508 15.455 42.6009C12.7583 45.0708 11.4813 46.2344 11.4813 47.8844C11.4813 49.0652 11.9608 50.1566 13.4028 50.765C11.8731 52.2087 10.9966 53.2537 10.9966 55.22C11 58.6695 14.013 60.6719 21.9175 60.6719C29.5178 60.6719 33.9264 57.8342 33.9264 52.812C33.9264 46.5094 29.0744 46.7414 17.6378 46.0436L19.0781 43.7353C22 44.55 31.8295 44.8061 31.8295 36.4427C31.8295 34.4334 30.9994 33.0361 30.2139 32.0306L34.2323 31.7247L34.2341 28.0156ZM48.73 46.8944L46.4956 46.5884C45.8391 46.5008 45.7961 46.4166 45.7961 45.7136V27.5894H36.7555L36.2759 31.1248C38.983 32.0787 39.1978 31.9602 39.1978 32.8728V45.7188C39.1978 46.6847 39.1445 46.5059 36.2759 46.8995V50.3473H48.7231L48.73 46.8944ZM66 48.6406L64.8192 44.7958C57.7844 47.4375 58.3137 42.6628 58.3137 41.9203V31.4841H64.8192V27.1167H58.6627C58.1694 27.1167 58.3189 27.5498 58.3189 20.4772H54.163C53.6834 25.2381 52.1555 27.1597 48.3192 27.5962V31.4841C51.8375 31.4841 51.7258 31.338 51.7258 31.9206V43.3623C51.7258 48.2986 53.6903 50.3938 58.8878 50.3938C61.3714 50.3938 64.1214 49.5636 66 48.6406V48.6406Z" fill="url(#paint0_linear_132_794)"/>
<defs>
<linearGradient id="paint0_linear_132_794" x1="-1.09485e-06" y1="39" x2="77" y2="39" gradientUnits="userSpaceOnUse">
<stop stop-color="#5EE7B9"/>
<stop offset="1" stop-color="#A9FA88"/>
</linearGradient>
</defs>
</svg>
