<svg width="77" height="77" viewBox="0 0 77 77" fill="none" xmlns="http://www.w3.org/2000/svg">
<path d="M68.75 0H8.25C3.69531 0 0 3.69531 0 8.25V68.75C0 73.3047 3.69531 77 8.25 77H68.75C73.3047 77 77 73.3047 77 68.75V8.25C77 3.69531 73.3047 0 68.75 0ZM47.6609 65.9484C46.2172 66.2063 45.6844 65.3125 45.6844 64.5734C45.6844 63.6453 45.7188 58.9016 45.7188 55.0687C45.7188 52.3875 44.825 50.6859 43.7766 49.7922C50.1359 49.0875 56.8391 48.2109 56.8391 37.2281C56.8391 34.1 55.7219 32.5359 53.9 30.525C54.1922 29.7859 55.1719 26.7438 53.6078 22.7906C51.2187 22.0516 45.7531 25.8672 45.7531 25.8672C43.4844 25.2312 41.0266 24.9047 38.6031 24.9047C36.1797 24.9047 33.7219 25.2312 31.4531 25.8672C31.4531 25.8672 25.9875 22.0516 23.5984 22.7906C22.0344 26.7266 22.9969 29.7688 23.3063 30.525C21.4844 32.5359 20.625 34.1 20.625 37.2281C20.625 48.1594 27.0359 49.0875 33.3953 49.7922C32.5703 50.5313 31.8312 51.8031 31.5734 53.625C29.9406 54.3641 25.7641 55.6359 23.2719 51.2359C21.7078 48.5203 18.8891 48.2969 18.8891 48.2969C16.1047 48.2625 18.7 50.05 18.7 50.05C20.5563 50.9094 21.8625 54.2094 21.8625 54.2094C23.5297 59.3141 31.5047 57.5953 31.5047 57.5953C31.5047 59.9844 31.5391 63.8688 31.5391 64.5734C31.5391 65.3125 31.0234 66.2063 29.5625 65.9484C18.2188 62.15 10.2781 51.3562 10.2781 38.7406C10.2781 22.9625 22.3438 10.9828 38.1219 10.9828C53.9 10.9828 66.6875 22.9625 66.6875 38.7406C66.7047 51.3562 59.0047 62.1672 47.6609 65.9484ZM30.8 55.4469C30.4734 55.5156 30.1641 55.3781 30.1297 55.1547C30.0953 54.8969 30.3188 54.6734 30.6453 54.6047C30.9719 54.5703 31.2812 54.7078 31.3156 54.9313C31.3672 55.1547 31.1437 55.3781 30.8 55.4469ZM29.1672 55.2922C29.1672 55.5156 28.9094 55.7047 28.5656 55.7047C28.1875 55.7391 27.9297 55.55 27.9297 55.2922C27.9297 55.0688 28.1875 54.8797 28.5312 54.8797C28.8578 54.8453 29.1672 55.0344 29.1672 55.2922ZM26.8125 55.1031C26.7437 55.3266 26.4 55.4297 26.1078 55.3266C25.7812 55.2578 25.5578 55 25.6266 54.7766C25.6953 54.5531 26.0391 54.45 26.3312 54.5188C26.675 54.6219 26.8984 54.8797 26.8125 55.1031ZM24.6984 54.175C24.5437 54.3641 24.2172 54.3297 23.9594 54.0719C23.7016 53.8484 23.6328 53.5219 23.8047 53.3672C23.9594 53.1781 24.2859 53.2125 24.5438 53.4703C24.7672 53.6938 24.8531 54.0375 24.6984 54.175ZM23.1344 52.6109C22.9797 52.7141 22.6875 52.6109 22.4984 52.3531C22.3094 52.0953 22.3094 51.8031 22.4984 51.6828C22.6875 51.5281 22.9797 51.6484 23.1344 51.9062C23.3234 52.1641 23.3234 52.4734 23.1344 52.6109V52.6109ZM22.0172 50.9437C21.8625 51.0984 21.6047 51.0125 21.4156 50.8406C21.2266 50.6172 21.1922 50.3594 21.3469 50.2391C21.5016 50.0844 21.7594 50.1703 21.9484 50.3422C22.1375 50.5656 22.1719 50.8234 22.0172 50.9437ZM20.8656 49.6719C20.7969 49.8266 20.5734 49.8609 20.3844 49.7406C20.1609 49.6375 20.0578 49.4484 20.1266 49.2937C20.1953 49.1906 20.3844 49.1391 20.6078 49.225C20.8313 49.3453 20.9344 49.5344 20.8656 49.6719Z" fill="url(#paint0_linear_132_791)"/>
<defs>
<linearGradient id="paint0_linear_132_791" x1="-1.09485e-06" y1="39" x2="77" y2="39" gradientUnits="userSpaceOnUse">
<stop stop-color="#5EE7B9"/>
<stop offset="1" stop-color="#A9FA88"/>
</linearGradient>
</defs>
</svg>
