<svg width="69" height="77" viewBox="0 0 69 77" fill="none" xmlns="http://www.w3.org/2000/svg">
<path d="M68.3113 0.542714C67.9975 0.196162 67.5463 0 67.0755 0H1.67518C1.2044 0 0.753224 0.196162 0.439366 0.542714C0.118967 0.889266 -0.0379624 1.35352 0.00780909 1.8243L5.8992 67.8196C5.95805 68.5127 6.44191 69.0881 7.10886 69.2843L33.9111 76.9346C34.0549 76.9804 34.2119 77 34.3688 77C34.5257 77 34.6761 76.9804 34.8265 76.9346L61.6483 69.2843C62.3153 69.0881 62.7926 68.5127 62.858 67.8196L68.7429 1.8243C68.7886 1.35352 68.6317 0.889266 68.3113 0.542714ZM54.2073 23.2975H22.7168L23.4687 31.8174H53.4488L51.1995 56.998L34.3623 62.0852L34.1988 62.0329L17.5577 56.9915L16.6489 46.7323H24.8026L25.1557 50.7143L34.4603 52.6629L43.5949 50.7143L44.5692 39.9385H16.0408L13.8241 15.1568H54.9331L54.2073 23.2975Z" fill="url(#paint0_linear_132_820)"/>
<defs>
<linearGradient id="paint0_linear_132_820" x1="6.4029e-07" y1="38.5" x2="68.6304" y2="38.5" gradientUnits="userSpaceOnUse">
<stop stop-color="#5EE7B9"/>
<stop offset="1" stop-color="#A9FA88"/>
</linearGradient>
</defs>
</svg>
