<svg width="77" height="77" viewBox="0 0 77 77" fill="none" xmlns="http://www.w3.org/2000/svg">
<path d="M0 0V77H77V0H0ZM41.9031 60.0531C41.9031 67.5469 37.5031 70.9672 31.0922 70.9672C25.3 70.9672 21.9484 67.9766 20.2297 64.35L26.125 60.7922C27.2594 62.8031 28.2906 64.5047 30.7828 64.5047C33.1547 64.5047 34.6672 63.5766 34.6672 59.95V35.3547H41.9031V60.0531V60.0531ZM59.0219 70.9672C52.3016 70.9672 47.9531 67.7703 45.8391 63.5766L51.7344 60.1734C53.2812 62.7 55.3094 64.5734 58.8672 64.5734C61.8578 64.5734 63.7828 63.0781 63.7828 60.9984C63.7828 58.5234 61.8234 57.6469 58.5062 56.1859L56.7016 55.4125C51.4766 53.1953 48.0219 50.3937 48.0219 44.4984C48.0219 39.0672 52.1641 34.9422 58.6094 34.9422C63.2156 34.9422 66.5156 36.5406 68.8875 40.7344L63.25 44.3438C62.0125 42.1266 60.6719 41.25 58.5922 41.25C56.4781 41.25 55.1375 42.5906 55.1375 44.3438C55.1375 46.5094 56.4781 47.3859 59.5891 48.7438L61.3938 49.5172C67.5469 52.1469 71.0016 54.8453 71.0016 60.8953C71.0016 67.3922 65.8797 70.9672 59.0219 70.9672V70.9672Z" fill="url(#paint0_linear_132_811)"/>
<defs>
<linearGradient id="paint0_linear_132_811" x1="5.27253e-07" y1="38.8667" x2="77" y2="38.8667" gradientUnits="userSpaceOnUse">
<stop stop-color="#5EE7B9"/>
<stop offset="1" stop-color="#A9FA88"/>
</linearGradient>
</defs>
</svg>
