<svg width="127" height="31" viewBox="0 0 127 31" fill="none" xmlns="http://www.w3.org/2000/svg">
<path d="M44.134 8.58H47.032V20.748C47.032 22.032 46.774 22.968 46.258 23.556C45.742 24.168 44.992 24.474 44.008 24.474C43.06 24.474 42.442 24.384 42.154 24.204L42.262 22.062C42.538 22.17 42.862 22.224 43.234 22.224C43.558 22.224 43.786 22.104 43.918 21.864C44.062 21.636 44.134 21.276 44.134 20.784V8.58ZM56.9545 19.956C56.0425 20.784 54.8665 21.198 53.4265 21.198C51.9865 21.198 50.8045 20.784 49.8805 19.956C48.9565 19.104 48.4945 17.982 48.4945 16.59C48.4945 15.198 48.9565 14.076 49.8805 13.224C50.8045 12.384 51.9865 11.964 53.4265 11.964C54.8665 11.964 56.0425 12.384 56.9545 13.224C57.8785 14.076 58.3405 15.198 58.3405 16.59C58.3405 17.982 57.8785 19.104 56.9545 19.956ZM54.8845 14.88C54.5245 14.448 54.0385 14.232 53.4265 14.232C52.8145 14.232 52.3225 14.448 51.9505 14.88C51.5905 15.3 51.4105 15.852 51.4105 16.536C51.4105 17.22 51.5905 17.778 51.9505 18.21C52.3225 18.63 52.8145 18.84 53.4265 18.84C54.0385 18.84 54.5245 18.63 54.8845 18.21C55.2565 17.778 55.4425 17.22 55.4425 16.536C55.4425 15.852 55.2565 15.3 54.8845 14.88ZM68.4512 16.302L68.4152 17.256H62.0972C62.1572 17.856 62.3912 18.318 62.7992 18.642C63.2072 18.954 63.7292 19.11 64.3652 19.11C65.3012 19.11 66.1892 18.828 67.0292 18.264L68.1632 19.758L68.0012 19.902C67.5212 20.274 67.0772 20.544 66.6692 20.712C65.6972 21.036 64.7912 21.198 63.9512 21.198C62.5592 21.198 61.4192 20.79 60.5312 19.974C59.6552 19.146 59.2172 18.012 59.2172 16.572C59.2172 15.156 59.6732 14.034 60.5852 13.206C61.4972 12.378 62.6372 11.964 64.0052 11.964C65.3372 11.964 66.4052 12.366 67.2092 13.17C68.0372 13.962 68.4512 15.006 68.4512 16.302ZM62.1152 15.618H65.7692C65.7572 15.138 65.5832 14.724 65.2472 14.376C64.9232 14.016 64.4912 13.836 63.9512 13.836C63.4232 13.836 62.9912 14.01 62.6552 14.358C62.3192 14.706 62.1392 15.126 62.1152 15.618ZM69.8483 8.58H72.7283V21H69.8483V8.58ZM81.9029 8.562H84.9269L89.6069 21H86.4389L85.5569 18.498H81.1289L80.2469 21H77.2229L81.9029 8.562ZM83.3429 11.766L81.7949 16.23H84.8909L83.3429 11.766ZM99.1953 15.762V21H96.3153V16.374C96.3153 15.654 96.2193 15.132 96.0273 14.808C95.8353 14.484 95.4753 14.322 94.9473 14.322C93.8913 14.322 93.3633 15.084 93.3633 16.608V21H90.4833V12.126H93.3633L93.3453 13.404H93.3813C93.9813 12.444 94.8393 11.964 95.9553 11.964C97.1073 11.964 97.9353 12.288 98.4393 12.936C98.9433 13.572 99.1953 14.514 99.1953 15.762ZM107.528 12.126H110.408V19.2C110.408 20.904 109.958 22.182 109.058 23.034C108.062 23.97 106.7 24.438 104.972 24.438C104.072 24.438 103.232 24.294 102.452 24.006C101.708 23.742 101.114 23.448 100.67 23.124L101.858 21.198C102.182 21.438 102.632 21.666 103.208 21.882C103.796 22.098 104.366 22.206 104.918 22.206C105.854 22.206 106.55 21.972 107.006 21.504C107.366 21.084 107.546 20.496 107.546 19.74V19.452H107.51C106.862 20.292 105.932 20.712 104.72 20.712C103.544 20.712 102.554 20.328 101.75 19.56C100.934 18.78 100.526 17.706 100.526 16.338C100.526 14.982 100.934 13.914 101.75 13.134C102.566 12.354 103.556 11.964 104.72 11.964C105.932 11.964 106.868 12.396 107.528 13.26H107.564L107.528 12.126ZM107.042 17.904C107.426 17.496 107.618 16.98 107.618 16.356C107.618 15.732 107.426 15.222 107.042 14.826C106.658 14.418 106.16 14.214 105.548 14.214C104.936 14.214 104.432 14.418 104.036 14.826C103.652 15.234 103.46 15.744 103.46 16.356C103.46 16.98 103.652 17.496 104.036 17.904C104.432 18.312 104.936 18.516 105.548 18.516C106.16 18.516 106.658 18.312 107.042 17.904ZM121.062 16.302L121.026 17.256H114.708C114.768 17.856 115.002 18.318 115.41 18.642C115.818 18.954 116.34 19.11 116.976 19.11C117.912 19.11 118.8 18.828 119.64 18.264L120.774 19.758L120.612 19.902C120.132 20.274 119.688 20.544 119.28 20.712C118.308 21.036 117.402 21.198 116.562 21.198C115.17 21.198 114.03 20.79 113.142 19.974C112.266 19.146 111.828 18.012 111.828 16.572C111.828 15.156 112.284 14.034 113.196 13.206C114.108 12.378 115.248 11.964 116.616 11.964C117.948 11.964 119.016 12.366 119.82 13.17C120.648 13.962 121.062 15.006 121.062 16.302ZM114.726 15.618H118.38C118.368 15.138 118.194 14.724 117.858 14.376C117.534 14.016 117.102 13.836 116.562 13.836C116.034 13.836 115.602 14.01 115.266 14.358C114.93 14.706 114.75 15.126 114.726 15.618ZM122.46 8.58H125.34V21H122.46V8.58Z" fill="white"/>
<path fill-rule="evenodd" clip-rule="evenodd" d="M2.94966 10.5502C0.215995 13.2838 0.215998 17.716 2.94967 20.4497L10.5502 28.0502C13.2838 30.7838 17.716 30.7838 20.4497 28.0502L28.0502 20.4497C30.7838 17.716 30.7838 13.2838 28.0502 10.5502L20.4497 2.94966C17.716 0.215995 13.2838 0.215998 10.5502 2.94967L2.94966 10.5502ZM17.1064 8.27327H14.2084V20.4773C14.2084 20.9693 14.1364 21.3293 13.9924 21.5573C13.8604 21.7973 13.6324 21.9173 13.3084 21.9173C12.9364 21.9173 12.6124 21.8633 12.3364 21.7553L12.2284 23.8973C12.5164 24.0773 13.1344 24.1673 14.0824 24.1673C15.0664 24.1673 15.8164 23.8613 16.3324 23.2493C16.8484 22.6613 17.1064 21.7253 17.1064 20.4413V8.27327Z" fill="url(#paint0_linear_118_20)"/>
<defs>
<linearGradient id="paint0_linear_118_20" x1="-0.0157508" y1="15.2928" x2="31.8826" y2="15.2928" gradientUnits="userSpaceOnUse">
<stop stop-color="#5EE7B9"/>
<stop offset="1" stop-color="#A9FA88"/>
</linearGradient>
</defs>
</svg>
