<svg width="88" height="77" viewBox="0 0 88 77" fill="none" xmlns="http://www.w3.org/2000/svg">
<path d="M71.8781 24.9528C70.95 24.6434 70.0219 24.3512 69.0938 24.0763C69.2484 23.4403 69.3859 22.8044 69.5234 22.1685C71.6375 11.9253 70.2453 3.69297 65.5531 0.977486C61.0328 -1.61769 53.6594 1.08061 46.2 7.57713C45.4609 8.21304 44.7391 8.88331 44.0516 9.55359C43.5875 9.10674 43.1063 8.65989 42.625 8.23022C34.8047 1.28684 26.9672 -1.63487 22.275 1.09779C17.7719 3.71015 16.4313 11.4613 18.3219 21.1545C18.5109 22.117 18.7172 23.0622 18.9578 24.0247C17.8578 24.3341 16.775 24.6778 15.7609 25.0387C6.58281 28.2182 0 33.2367 0 38.427C0 43.7893 7.0125 49.1687 16.5516 52.4341C17.325 52.6919 18.0984 52.9497 18.8891 53.1731C18.6313 54.2043 18.4078 55.2183 18.2016 56.2667C16.3969 65.8053 17.8063 73.3674 22.3094 75.9625C26.95 78.6436 34.7531 75.8938 42.35 69.2426C42.9516 68.7098 43.5531 68.1598 44.1547 67.5755C44.9109 68.3145 45.7016 69.0192 46.4922 69.7066C53.8484 76.0313 61.1188 78.5921 65.6047 75.9969C70.2453 73.3158 71.7578 65.1866 69.7984 55.2871C69.6438 54.5309 69.4719 53.7575 69.2828 52.9669C69.8328 52.8122 70.3656 52.6403 70.8984 52.4685C80.8156 49.1858 88 43.8752 88 38.427C88 33.2195 81.2281 28.1667 71.8781 24.9528ZM48.6234 10.3614C55.0172 4.79291 60.9813 2.61021 63.6969 4.17419C66.6016 5.84129 67.7188 12.5784 65.8969 21.4295C65.7766 22.0139 65.6563 22.581 65.5016 23.1482C61.6859 22.2888 57.8188 21.6701 53.9344 21.3264C51.7 18.1297 49.2594 15.0705 46.6125 12.2003C47.2828 11.5644 47.9359 10.9629 48.6234 10.3614ZM28.7375 47.3469C29.6141 48.8421 30.5078 50.3373 31.4531 51.7982C28.7719 51.506 26.1078 51.0764 23.4781 50.5092C24.2344 48.0343 25.1797 45.4735 26.2797 42.8612C27.0703 44.3736 27.8781 45.8688 28.7375 47.3469ZM23.5297 26.6714C26.0047 26.1215 28.6344 25.6746 31.3672 25.3309C30.4563 26.7574 29.5625 28.2182 28.7203 29.6963C27.8781 31.1571 27.0531 32.6524 26.2797 34.1648C25.1969 31.604 24.2859 29.0947 23.5297 26.6714ZM28.2391 38.513C29.3734 36.1412 30.6109 33.821 31.9172 31.5352C33.2234 29.2494 34.6328 27.0323 36.1109 24.8496C38.6891 24.6606 41.3188 24.5575 44 24.5575C46.6813 24.5575 49.3281 24.6606 51.8891 24.8496C53.35 27.0152 54.7422 29.2322 56.0656 31.5009C57.3891 33.7695 58.6266 36.0897 59.7953 38.4442C58.6438 40.816 57.4063 43.1534 56.0828 45.4564C54.7766 47.7422 53.3844 49.9592 51.9234 52.1591C49.3625 52.3482 46.6984 52.4341 44 52.4341C41.3016 52.4341 38.6891 52.3482 36.1625 52.1935C34.6672 50.0108 33.2578 47.7765 31.9344 45.4907C30.6109 43.2049 29.3906 40.8847 28.2391 38.513ZM59.2797 47.3125C60.1563 45.8001 60.9813 44.2705 61.7891 42.7237C62.8891 45.2157 63.8516 47.7422 64.6938 50.3373C62.0297 50.9389 59.3313 51.4029 56.6156 51.7123C57.5438 50.2686 58.4203 48.7906 59.2797 47.3125ZM61.7547 34.1648C60.9469 32.6524 60.1219 31.1399 59.2625 29.6619C58.4203 28.201 57.5438 26.7574 56.6328 25.3309C59.4 25.6746 62.0469 26.1386 64.5219 26.7058C63.7313 29.2494 62.8031 31.7243 61.7547 34.1648ZM44.0344 14.8299C45.8391 16.7891 47.5406 18.8515 49.1219 20.9827C45.7188 20.828 42.2984 20.828 38.8953 20.9827C40.5797 18.7656 42.3156 16.7032 44.0344 14.8299ZM24.0969 4.2945C26.9844 2.61021 33.3953 5.01633 40.15 10.9973C40.5797 11.3754 41.0094 11.7878 41.4563 12.2003C38.7922 15.0705 36.3344 18.1297 34.0828 21.3264C30.1984 21.6701 26.3484 22.2717 22.5328 23.1138C22.3094 22.2373 22.1203 21.3436 21.9313 20.4499C20.3156 12.1316 21.3813 5.85848 24.0969 4.2945ZM19.8859 49.5983C19.1641 49.3921 18.4594 49.1687 17.7547 48.9281C14.0938 47.7766 9.93438 45.9548 6.92656 43.5658C5.19063 42.3628 4.02188 40.5066 3.69531 38.427C3.69531 35.2819 9.12656 31.2602 16.9641 28.5276C17.9438 28.1838 18.9406 27.8745 19.9375 27.5823C21.1063 31.3118 22.5156 34.9725 24.1484 38.513C22.4984 42.105 21.0719 45.8173 19.8859 49.5983ZM39.9266 66.4412C37.0906 69.0364 33.8078 71.0987 30.2328 72.508C28.325 73.4189 26.125 73.5049 24.1656 72.7315C21.4328 71.1503 20.2984 65.0834 21.8453 56.9198C22.0344 55.9574 22.2406 54.9949 22.4813 54.0497C26.3313 54.8746 30.2156 55.4418 34.1516 55.7339C36.4203 58.9478 38.9125 62.0242 41.5766 64.9116C41.0266 65.4444 40.4766 65.96 39.9266 66.4412ZM44.1375 62.2648C42.3844 60.3743 40.6313 58.2776 38.9297 56.0261C40.5797 56.0949 42.2813 56.1292 44 56.1292C45.7703 56.1292 47.5063 56.0949 49.225 56.0089C47.6438 58.1916 45.9422 60.2712 44.1375 62.2648ZM66.6016 67.4208C66.4469 69.5176 65.4156 71.4768 63.7656 72.8002C61.0328 74.3814 55.2063 72.319 48.9156 66.9224C48.1938 66.3037 47.4719 65.6334 46.7328 64.9459C49.3625 62.0414 51.7859 58.965 53.9859 55.7339C57.9219 55.4074 61.8406 54.8059 65.7078 53.9293C65.8797 54.634 66.0344 55.3386 66.1719 56.0261C67.0141 59.7384 67.1516 63.6054 66.6016 67.4208ZM69.7297 48.9452C69.2484 49.0999 68.7672 49.2546 68.2688 49.3921C67.0656 45.6454 65.5875 41.9847 63.8859 38.427C65.5359 34.921 66.9281 31.3118 68.0969 27.6167C68.9906 27.8745 69.85 28.1495 70.675 28.4245C78.6844 31.1743 84.3047 35.2647 84.3047 38.3927C84.3047 41.7612 78.3063 46.1094 69.7297 48.9452ZM44 46.3672C48.3484 46.3672 51.8719 42.844 51.8719 38.4958C51.8719 34.1476 48.3484 30.6243 44 30.6243C39.6516 30.6243 36.1281 34.1476 36.1281 38.4958C36.1281 42.844 39.6516 46.3672 44 46.3672Z" fill="url(#paint0_linear_132_807)"/>
<defs>
<linearGradient id="paint0_linear_132_807" x1="-7.55736e-07" y1="38.4958" x2="88" y2="38.4958" gradientUnits="userSpaceOnUse">
<stop stop-color="#5EE7B9"/>
<stop offset="1" stop-color="#A9FA88"/>
</linearGradient>
</defs>
</svg>
