<svg width="103" height="77" viewBox="0 0 103 77" fill="none" xmlns="http://www.w3.org/2000/svg">
<path d="M48.4156 58.213C48.3675 58.3092 48.3194 58.3862 48.4156 58.213V58.213ZM88.377 44.2579C85.1509 44.2568 81.9677 44.9977 79.0736 46.4233C78.1272 44.5145 77.1487 42.8463 76.9883 41.5952C76.7959 40.1355 76.5873 39.2693 76.8119 37.537C77.0365 35.8046 78.047 33.3504 78.031 33.174C78.0149 32.9975 77.8064 32.1153 75.7372 32.0993C73.668 32.0832 71.8875 32.5003 71.6806 33.0457C71.3151 34.0423 71.0308 35.0669 70.8304 36.1094C70.4615 37.9861 66.6936 44.691 64.5603 48.1878C63.8545 46.8243 63.261 45.6213 63.1327 44.6589C62.9402 43.1992 62.7317 42.333 62.9562 40.6007C63.1808 38.8683 64.1913 36.4141 64.1753 36.2377C64.1593 36.0613 63.9507 35.179 61.8831 35.163C59.8155 35.147 58.0334 35.564 57.8249 36.1094C57.6164 36.6547 57.3918 37.938 56.9748 39.1731C56.5577 40.4082 51.5387 51.5723 50.225 54.4756C49.5513 55.9513 48.9739 57.1383 48.5568 57.9403C48.4926 58.0686 48.4445 58.1488 48.4124 58.213C48.4606 58.1328 48.4926 58.0526 48.4926 58.0847C48.1398 58.7744 47.9312 59.1594 47.9312 59.1594V59.1754C47.6585 59.6887 47.3538 60.1539 47.2094 60.1539C47.1132 60.1539 46.9046 58.8065 47.2575 56.9618C48.0114 53.0801 49.7919 47.0489 49.7759 46.8404C49.7598 46.7281 50.1127 45.6855 48.6049 45.1241C47.1453 44.5947 46.6159 45.4769 46.4876 45.4769C46.3593 45.4769 46.263 45.7978 46.263 45.7978C46.263 45.7978 47.8831 38.9966 43.1528 38.9966C40.2014 38.9966 36.095 42.2368 34.0772 45.1722C32.81 45.8619 30.0671 47.3537 27.1798 48.9417C26.073 49.5512 24.9342 50.1768 23.8595 50.7703C23.7793 50.6901 23.7151 50.6099 23.6349 50.5297C17.8941 44.4022 7.29458 40.0713 7.74371 31.8426C7.90412 28.8431 8.94674 20.9673 28.1262 11.4072C43.8457 3.57953 56.4134 5.72894 58.5772 10.509C61.689 17.3261 51.8579 30.014 35.5336 31.8426C29.3116 32.5324 26.041 30.1263 25.2229 29.2281C24.3728 28.2817 24.2444 28.2336 23.9236 28.41C23.3943 28.6987 23.7311 29.5328 23.9236 30.0301C24.4048 31.2973 26.4099 33.5429 29.8249 34.6657C32.8244 35.6442 40.1196 36.1896 48.9402 32.773C58.8499 28.9554 66.5637 18.3206 64.302 9.41822C61.9986 0.371455 46.9977 -2.59601 32.8132 2.44066C24.3615 5.44021 15.2217 10.1561 8.64679 16.2995C0.836736 23.6139 -0.412809 29.982 0.100483 32.6447C1.92748 42.0924 14.949 48.2519 20.1606 52.8074C19.9039 52.9518 19.6633 53.0801 19.4387 53.2084C16.8258 54.5077 6.89839 59.7047 4.41374 65.1906C1.60667 71.4142 4.87891 75.8734 7.02671 76.483C13.73 78.3436 20.5936 74.9912 24.2813 69.4894C27.969 63.9875 27.5215 56.8014 25.8212 53.5292C25.8052 53.4811 25.7731 53.449 25.757 53.4009C26.4307 52.9999 27.1205 52.5989 27.8102 52.1979C29.1399 51.4119 30.4392 50.6901 31.5781 50.0645C30.9365 51.7968 30.4713 53.8821 30.2307 56.8977C29.942 60.4266 31.4016 64.9981 33.2944 66.7946C34.1285 67.5806 35.1374 67.5966 35.763 67.5966C37.9766 67.5966 38.9711 65.768 40.0763 63.5865C41.4397 60.9238 42.6427 57.828 42.6427 57.828C42.6427 57.828 41.1349 66.2011 45.2573 66.2011C46.7635 66.2011 48.2713 64.2602 48.9466 63.2657V63.2817C48.9466 63.2817 48.9787 63.2176 49.0589 63.0893C49.2193 62.8487 49.2995 62.7043 49.2995 62.7043V62.6562C49.909 61.6135 51.2404 59.2235 53.2438 55.2776C55.8423 50.1768 58.327 43.8088 58.327 43.8088C58.5671 45.2086 58.8993 46.5911 59.3215 47.9472C59.7706 49.471 60.717 51.1392 61.4709 52.7593C60.8614 53.5934 60.4924 54.0746 60.4924 54.0746C60.4936 54.0869 60.4993 54.0983 60.5085 54.1067C60.0273 54.7483 59.4819 55.438 58.9205 56.1117C56.8689 58.5498 54.4292 61.3409 54.1084 62.1429C53.7234 63.0893 53.8196 63.795 54.5575 64.3404C55.1029 64.7575 56.0653 64.8216 57.0742 64.7414C58.9189 64.6131 60.2181 64.164 60.8437 63.8752C61.997 63.4617 63.087 62.8894 64.0823 62.175C66.0873 60.6992 67.3064 58.5819 67.1941 55.7909C67.1299 54.251 66.6327 52.7111 66.0231 51.2675C66.1996 51.0109 66.3921 50.7382 66.5685 50.4655C69.7429 45.8298 72.1971 40.7418 72.1971 40.7418C72.4372 42.1417 72.7694 43.5242 73.1916 44.8802C73.5766 46.1795 74.3288 47.6071 75.0186 49.0026C72.0367 51.4247 70.192 54.2318 69.5504 56.0764C68.3634 59.493 69.2938 61.0329 71.0422 61.3858C71.8282 61.5462 72.951 61.1773 73.7851 60.8244C75.0238 60.4118 76.1918 59.8113 77.2482 59.0439C79.2532 57.5682 81.1925 55.499 81.0642 52.6919C81.0161 51.4247 80.6632 50.1575 80.198 48.9385C82.7164 47.8798 85.987 47.3023 90.1575 47.7836C99.0888 48.8262 100.837 54.4082 100.5 56.7341C100.163 59.0599 98.2867 60.3592 97.6612 60.7442C97.0356 61.1291 96.8431 61.2735 96.8912 61.5622C96.9714 61.9793 97.2602 61.9632 97.7895 61.867C98.5273 61.7387 102.472 59.9742 102.648 55.6594C102.905 50.2056 97.6612 44.2065 88.3722 44.2547L88.377 44.2579ZM19.535 67.4683C16.5852 70.6924 12.4467 71.9115 10.6679 70.8849C8.75907 69.7749 9.51297 65.0301 13.1525 61.5943C15.3661 59.5091 18.2197 57.5842 20.1124 56.3972C20.5455 56.1406 21.1711 55.7556 21.941 55.2904C22.0694 55.2102 22.1335 55.1782 22.1335 55.1782C22.2779 55.0819 22.4383 55.0017 22.5987 54.9055C23.9284 59.7817 22.6468 64.0806 19.535 67.4651V67.4683ZM41.0868 52.8074C40.0602 55.3257 37.8964 61.7419 36.5811 61.405C35.4582 61.1163 34.7685 56.224 36.3565 51.4119C37.1585 48.9898 38.8588 46.1025 39.8693 44.9797C41.4878 43.1671 43.2683 42.5897 43.6853 43.3115C44.2468 44.2579 41.7284 51.2354 41.0868 52.8074ZM58.8916 61.3088C58.4585 61.5333 58.0575 61.6777 57.865 61.5654C57.7207 61.4852 58.0415 61.1805 58.0415 61.1805C58.0415 61.1805 60.2711 58.7904 61.1533 57.6997C61.6666 57.0581 62.2601 56.3042 62.9001 55.4701C62.9001 55.5503 62.9161 55.6305 62.9161 55.7267C62.8953 58.598 60.1379 60.5388 58.8868 61.3088H58.8916ZM72.6189 58.1809C72.2981 57.9563 72.3463 57.2024 73.421 54.8606C73.838 53.9463 74.7988 52.4064 76.4686 50.9307C76.6577 51.4893 76.7604 52.0734 76.7734 52.663C76.7574 56.2721 74.1749 57.6195 72.6206 58.1809H72.6189Z" fill="url(#paint0_linear_132_814)"/>
<defs>
<linearGradient id="paint0_linear_132_814" x1="-6.04518e-07" y1="38.4964" x2="102.657" y2="38.4964" gradientUnits="userSpaceOnUse">
<stop stop-color="#5EE7B9"/>
<stop offset="1" stop-color="#A9FA88"/>
</linearGradient>
</defs>
</svg>
