<svg width="22" height="21" viewBox="0 0 22 21" fill="none" xmlns="http://www.w3.org/2000/svg">
<path d="M17.8959 13.125H16.6061C16.435 13.125 16.271 13.1941 16.15 13.3172C16.0291 13.4403 15.9611 13.6072 15.9611 13.7812C15.9611 16.3183 13.9044 18.375 11.3674 18.375H9.51176C5.94988 18.375 3.06241 15.4875 3.06241 11.9256V11.0544C3.06241 7.84873 5.66113 5.25 8.86683 5.25C9.03787 5.25 9.20191 5.18086 9.32286 5.05779C9.44381 4.93472 9.51176 4.7678 9.51176 4.59375V3.28125C9.51176 3.1072 9.44381 2.94028 9.32286 2.81721C9.20191 2.69414 9.03787 2.625 8.86683 2.625H2.41747C1.90433 2.625 1.4122 2.83242 1.04936 3.20163C0.686511 3.57085 0.482666 4.07161 0.482666 4.59375L0.482666 19.0312C0.482666 19.5534 0.686511 20.0542 1.04936 20.4234C1.4122 20.7926 1.90433 21 2.41747 21H16.6061C17.1192 21 17.6113 20.7926 17.9742 20.4234C18.337 20.0542 18.5409 19.5534 18.5409 19.0312V13.7812C18.5409 13.6072 18.4729 13.4403 18.352 13.3172C18.231 13.1941 18.067 13.125 17.8959 13.125ZM20.1532 0C20.1532 0 20.1532 0 20.1532 0H14.9937C14.1323 0 13.7018 1.06271 14.3085 1.68164C15.1079 2.49505 15.1077 3.79909 14.3082 4.61235L5.92431 13.1402C5.83412 13.2316 5.76256 13.3403 5.71373 13.4599C5.66491 13.5796 5.63977 13.7079 5.63977 13.8374C5.63977 13.967 5.66491 14.0953 5.71373 14.2149C5.76256 14.3346 5.83412 14.4433 5.92431 14.5347L6.8381 15.4629C6.92798 15.5547 7.03477 15.6275 7.15236 15.6772C7.26995 15.7268 7.39602 15.7524 7.52334 15.7524C7.65067 15.7524 7.77674 15.7268 7.89433 15.6772C8.01192 15.6275 8.11871 15.5547 8.20859 15.4629L16.5893 6.93265C17.38 6.12791 18.6767 6.12746 19.468 6.93164C20.0726 7.54688 21.1206 7.11621 21.1206 6.23438V0.984375C21.1206 0.723303 21.0187 0.472923 20.8373 0.288317C20.6558 0.103711 20.4098 0 20.1532 0C20.1532 0 20.1532 0 20.1532 0Z" fill="white"/>
</svg>
