<svg width="78" height="78" viewBox="0 0 78 78" fill="none" xmlns="http://www.w3.org/2000/svg">
<path d="M61.5469 52.6875C55.4531 54.1406 53.9844 57.7031 45.2969 60.0938C45.2969 60.0938 44.875 60.7187 43.6719 61C41.5781 61.5156 33.6875 61.9375 32.9688 61.9531C31.0313 61.9688 29.8594 61.4531 29.5312 60.6719C28.5312 58.2812 30.9687 57.2344 30.9687 57.2344C29.7031 56.4531 29.5625 55.6875 29.4375 55.9688C29.0625 56.875 28.875 59.1094 27.8594 60.1094C26.4844 61.5 23.875 61.0312 22.3438 60.2344C20.6562 59.3438 22.4688 57.2344 22.4688 57.2344C22.4688 57.2344 21.5625 57.7656 20.8281 56.6719C19.8906 55.2188 18.1563 50.8438 22.625 46.9844C22.4219 45.4063 21.9062 38.5938 28.9687 33.6094C28.9687 33.6094 25.75 30.0469 26.9531 26.8438C27.7344 24.75 28.0469 24.7656 28.2969 24.6719C29.1875 24.3281 30.0625 23.9531 30.7031 23.25C33.9219 19.7813 38.0156 20.4375 38.0156 20.4375C38.0156 20.4375 39.9531 14.5313 41.75 15.6875C42.2969 16.0469 44.2969 20.4688 44.2969 20.4688C44.2969 20.4688 46.4219 19.2344 46.6563 19.6875C47.9375 22.1875 48.0938 26.9531 47.5313 29.8594C46.5781 34.6406 44.1875 37.2188 43.2188 38.8438C43 39.2188 45.7969 40.4062 47.5625 45.2969C49.1875 49.7656 47.7344 53.5313 48 53.9375C48.125 54.1563 50.1406 54.0625 53.6875 51.875C55.6875 50.6406 58.0781 49.2344 60.7812 49.2188C63.3906 49.1406 63.5312 52.2188 61.5469 52.6875V52.6875ZM77.5 38.75C77.5 60.1406 60.1406 77.5 38.75 77.5C17.3594 77.5 0 60.1406 0 38.75C0 17.3594 17.3594 0 38.75 0C60.1406 0 77.5 17.3594 77.5 38.75ZM65.1094 50.5C64.8438 48.375 63.0469 46.9062 60.7344 46.9375C57.2969 46.9844 54.4062 48.7656 52.4844 49.9375C51.7344 50.4063 51.0938 50.75 50.5469 51C51.0312 44.0469 47.0312 39.5781 46.0625 38.5938C47.2812 36.8281 48.9375 34.25 49.7188 30.2813C50.3906 26.8906 50.1875 21.6094 48.6406 18.6406C48.3906 18.1563 47.4844 16.8906 45.3594 17.4844C43.8437 14.3594 43.3281 14.0312 42.9219 13.7656C42.75 13.6562 39.2344 11.2031 36.4531 18.1406C34.5469 18.2812 31.5625 18.9687 29.0313 21.7031C28.7188 22.0469 28.1094 22.2969 27.4531 22.5469H27.4688C26.1563 23.0156 25.5469 24.0938 24.8281 26.0313C23.8125 28.75 24.8594 31.4375 25.8906 33.1719C23.1094 35.6563 20.1094 39.3906 20.3125 46.0625C15 51.6875 18.4688 57.4687 19.4375 58.5C19.1875 60.2344 20.0156 61.5313 21.3125 62.2188C23.2812 63.2656 26.0469 63.7188 28.1719 62.6562C28.9375 63.4687 30.3281 64.2344 32.8594 64.2344C33.9219 64.2344 41.9219 63.7813 44.2031 63.2188C45.2656 62.9688 46 62.5156 46.4844 62.1094C48.0156 61.625 52.2344 60.1875 56.2031 57.625C59.0156 55.7969 59.9844 55.4062 62.0781 54.9062C64.0937 54.4062 65.3594 52.5469 65.1094 50.5V50.5Z" fill="url(#paint0_linear_132_797)"/>
<defs>
<linearGradient id="paint0_linear_132_797" x1="-1.12197e-07" y1="39" x2="77" y2="39" gradientUnits="userSpaceOnUse">
<stop stop-color="#5EE7B9"/>
<stop offset="1" stop-color="#A9FA88"/>
</linearGradient>
</defs>
</svg>
