<svg width="1512" height="1113" viewBox="0 0 1512 1113" fill="none" xmlns="http://www.w3.org/2000/svg">
<g clip-path="url(#clip0_132_1577)">
<path d="M-13.5488 53.7495L140.899 210.551H276.16L427.135 363.826" stroke="#5EE7B9" stroke-width="2" stroke-miterlimit="10"/>
<path d="M433.966 379.778C438.872 379.778 442.849 375.74 442.849 370.76C442.849 365.779 438.872 361.741 433.966 361.741C429.06 361.741 425.083 365.779 425.083 370.76C425.083 375.74 429.06 379.778 433.966 379.778Z" stroke="#5EE7B9" stroke-width="2" stroke-miterlimit="10"/>
<path d="M40.1719 0.183594L177.352 139.454H312.614L427.135 255.721" stroke="#5EE7B9" stroke-width="2" stroke-miterlimit="10"/>
<path d="M433.966 271.674C438.872 271.674 442.849 267.636 442.849 262.655C442.849 257.674 438.872 253.637 433.966 253.637C429.06 253.637 425.083 257.674 425.083 262.655C425.083 267.636 429.06 271.674 433.966 271.674Z" stroke="#5EE7B9" stroke-width="2" stroke-miterlimit="10"/>
<path d="M557.466 262.655H703.856L968.355 -5.87402" stroke="#5EE7B9" stroke-width="2" stroke-miterlimit="10"/>
<path d="M548.602 271.674C553.508 271.674 557.486 267.636 557.486 262.655C557.486 257.674 553.508 253.637 548.602 253.637C543.696 253.637 539.719 257.674 539.719 262.655C539.719 267.636 543.696 271.674 548.602 271.674Z" stroke="#5EE7B9" stroke-width="2" stroke-miterlimit="10"/>
<path d="M665.292 167.62L842.993 -12.7891" stroke="#5EE7B9" stroke-width="2" stroke-miterlimit="10"/>
<path d="M658.404 183.514C663.299 183.514 667.268 179.485 667.268 174.515C667.268 169.545 663.299 165.516 658.404 165.516C653.509 165.516 649.54 169.545 649.54 174.515C649.54 179.485 653.509 183.514 658.404 183.514Z" stroke="#5EE7B9" stroke-width="2" stroke-miterlimit="10"/>
<path d="M3.71875 552.396H720.279L827.03 444.018" stroke="#5EE7B9" stroke-width="2" stroke-miterlimit="10"/>
<path d="M833.304 446.647C838.2 446.647 842.168 442.618 842.168 437.648C842.168 432.678 838.2 428.649 833.304 428.649C828.409 428.649 824.44 432.678 824.44 437.648C824.44 442.618 828.409 446.647 833.304 446.647Z" stroke="#5EE7B9" stroke-width="2" stroke-miterlimit="10"/>
<path d="M1156.84 446.667C1161.74 446.667 1165.72 442.63 1165.72 437.649C1165.72 432.668 1161.74 428.63 1156.84 428.63C1151.93 428.63 1147.96 432.668 1147.96 437.649C1147.96 442.63 1151.93 446.667 1156.84 446.667Z" stroke="#5EE7B9" stroke-width="2" stroke-miterlimit="10"/>
<path d="M632.042 488.78L750.113 368.91H1018.66L1087.06 438.35H1147.96" stroke="#5EE7B9" stroke-width="2" stroke-miterlimit="10"/>
<path d="M625.903 504.031C630.798 504.031 634.767 500.002 634.767 495.032C634.767 490.062 630.798 486.033 625.903 486.033C621.007 486.033 617.039 490.062 617.039 495.032C617.039 500.002 621.007 504.031 625.903 504.031Z" stroke="#5EE7B9" stroke-width="2" stroke-miterlimit="10"/>
<path d="M466.62 638.627L541.887 715.041H924.649L985.986 777.313H1274.79L1302.36 749.342H1460.28" stroke="#5EE7B9" stroke-width="2" stroke-miterlimit="10"/>
<path d="M460.347 641.276C465.253 641.276 469.23 637.238 469.23 632.257C469.23 627.276 465.253 623.239 460.347 623.239C455.441 623.239 451.463 627.276 451.463 632.257C451.463 637.238 455.441 641.276 460.347 641.276Z" stroke="#5EE7B9" stroke-width="2" stroke-miterlimit="10"/>
<path d="M373.28 862.102H638.24L671.163 895.527H980.288L1095.23 1012.22" stroke="#5EE7B9" stroke-width="2" stroke-miterlimit="10"/>
<path d="M364.416 871.121C369.322 871.121 373.299 867.083 373.299 862.102C373.299 857.121 369.322 853.084 364.416 853.084C359.51 853.084 355.533 857.121 355.533 862.102C355.533 867.083 359.51 871.121 364.416 871.121Z" stroke="#5EE7B9" stroke-width="2" stroke-miterlimit="10"/>
<path d="M3.71875 632.257H314.533L465.143 785.163H713.91L756.656 828.561H1074.3L1167.26 922.914" stroke="#5EE7B9" stroke-width="2" stroke-miterlimit="10"/>
<path d="M1174.28 937.425C1179.18 937.425 1183.16 933.387 1183.16 928.407C1183.16 923.426 1179.18 919.388 1174.28 919.388C1169.37 919.388 1165.4 923.426 1165.4 928.407C1165.4 933.387 1169.37 937.425 1174.28 937.425Z" stroke="#5EE7B9" stroke-width="2" stroke-miterlimit="10"/>
<path d="M999.974 638.607L1041.68 680.953H1300.7L1385.94 594.411H1491.27" stroke="#5EE7B9" stroke-width="2" stroke-miterlimit="10"/>
<path d="M993.719 641.276C998.625 641.276 1002.6 637.238 1002.6 632.257C1002.6 627.276 998.625 623.239 993.719 623.239C988.813 623.239 984.835 627.276 984.835 632.257C984.835 637.238 988.813 641.276 993.719 641.276Z" stroke="#5EE7B9" stroke-width="2" stroke-miterlimit="10"/>
<path d="M1174.39 596.865L1223.95 546.552H1491.27" stroke="#5EE7B9" stroke-width="2" stroke-miterlimit="10"/>
<path d="M1168.31 612.058C1173.22 612.058 1177.2 608.021 1177.2 603.04C1177.2 598.059 1173.22 594.021 1168.31 594.021C1163.41 594.021 1159.43 598.059 1159.43 603.04C1159.43 608.021 1163.41 612.058 1168.31 612.058Z" stroke="#5EE7B9" stroke-width="2" stroke-miterlimit="10"/>
<path d="M1277.04 431.493L1326.6 381.161H1593.92" stroke="#5EE7B9" stroke-width="2" stroke-miterlimit="10"/>
<path d="M1270.96 446.667C1275.86 446.667 1279.84 442.63 1279.84 437.649C1279.84 432.668 1275.86 428.63 1270.96 428.63C1266.05 428.63 1262.07 432.668 1262.07 437.649C1262.07 442.63 1266.05 446.667 1270.96 446.667Z" stroke="#5EE7B9" stroke-width="2" stroke-miterlimit="10"/>
<path d="M1229.71 829.515L1326.83 928.114H1402.38L1460.28 869.329" stroke="#5EE7B9" stroke-width="2" stroke-miterlimit="10"/>
<path d="M1223.45 832.164C1228.36 832.164 1232.34 828.126 1232.34 823.145C1232.34 818.165 1228.36 814.127 1223.45 814.127C1218.55 814.127 1214.57 818.165 1214.57 823.145C1214.57 828.126 1218.55 832.164 1223.45 832.164Z" stroke="#5EE7B9" stroke-width="2" stroke-miterlimit="10"/>
<path d="M3.71875 698.075H198.342L293.39 794.59V875.465L208.952 961.208" stroke="#5EE7B9" stroke-width="2" stroke-miterlimit="10"/>
<path d="M202.563 976.304C207.458 976.304 211.427 972.275 211.427 967.305C211.427 962.335 207.458 958.306 202.563 958.306C197.667 958.306 193.699 962.335 193.699 967.305C193.699 972.275 197.667 976.304 202.563 976.304Z" stroke="#5EE7B9" stroke-width="2" stroke-miterlimit="10"/>
<path d="M597.872 632.257H870.141L1000.05 500.389H1333.06" stroke="#5EE7B9" stroke-width="2" stroke-miterlimit="10"/>
<path d="M589.008 641.256C593.903 641.256 597.872 637.227 597.872 632.257C597.872 627.287 593.903 623.258 589.008 623.258C584.113 623.258 580.144 627.287 580.144 632.257C580.144 637.227 584.113 641.256 589.008 641.256Z" stroke="#5EE7B9" stroke-width="2" stroke-miterlimit="10"/>
<path d="M1350.2 500.388C1350.2 498.666 1349.69 496.983 1348.75 495.551C1347.81 494.119 1346.47 493.003 1344.9 492.344C1343.33 491.685 1341.61 491.513 1339.95 491.849C1338.28 492.185 1336.75 493.014 1335.55 494.232C1334.36 495.449 1333.54 497.001 1333.21 498.69C1332.88 500.379 1333.05 502.129 1333.7 503.72C1334.34 505.311 1335.44 506.671 1336.85 507.628C1338.26 508.585 1339.92 509.095 1341.62 509.095C1343.89 509.095 1346.07 508.178 1347.68 506.545C1349.29 504.912 1350.2 502.698 1350.2 500.388V500.388Z" stroke="#5EE7B9" stroke-width="2" stroke-miterlimit="10"/>
<path d="M3.71875 484.689H401.868L490.91 394.29V221.03L359.773 87.8755" stroke="#5EE7B9" stroke-width="2" stroke-miterlimit="10"/>
<path d="M353.864 90.1737C358.77 90.1737 362.747 86.136 362.747 81.1552C362.747 76.1744 358.77 72.1367 353.864 72.1367C348.958 72.1367 344.981 76.1744 344.981 81.1552C344.981 86.136 348.958 90.1737 353.864 90.1737Z" stroke="#5EE7B9" stroke-width="2" stroke-miterlimit="10"/>
<path d="M832.172 256.286L972.364 113.977H1192.06" stroke="#5EE7B9" stroke-width="2" stroke-miterlimit="10"/>
<path d="M825.898 271.674C830.804 271.674 834.781 267.636 834.781 262.655C834.781 257.674 830.804 253.637 825.898 253.637C820.992 253.637 817.015 257.674 817.015 262.655C817.015 267.636 820.992 271.674 825.898 271.674Z" stroke="#5EE7B9" stroke-width="2" stroke-miterlimit="10"/>
<path d="M1200.93 122.975C1205.83 122.975 1209.81 118.938 1209.81 113.957C1209.81 108.976 1205.83 104.938 1200.93 104.938C1196.02 104.938 1192.04 108.976 1192.04 113.957C1192.04 118.938 1196.02 122.975 1200.93 122.975Z" stroke="#5EE7B9" stroke-width="2" stroke-miterlimit="10"/>
<path d="M1347.99 212.634L1488.16 70.3252H1707.86" stroke="#5EE7B9" stroke-width="2" stroke-miterlimit="10"/>
<path d="M1341.7 228.022C1346.6 228.022 1350.58 223.985 1350.58 219.004C1350.58 214.023 1346.6 209.985 1341.7 209.985C1336.79 209.985 1332.81 214.023 1332.81 219.004C1332.81 223.985 1336.79 228.022 1341.7 228.022Z" stroke="#5EE7B9" stroke-width="2" stroke-miterlimit="10"/>
<path d="M901.779 121.729L1041.95 -20.5996H1261.65" stroke="#5EE7B9" stroke-width="2" stroke-miterlimit="10"/>
<path d="M895.505 137.097C900.4 137.097 904.369 133.068 904.369 128.098C904.369 123.128 900.4 119.099 895.505 119.099C890.61 119.099 886.641 123.128 886.641 128.098C886.641 133.068 890.61 137.097 895.505 137.097Z" stroke="#5EE7B9" stroke-width="2" stroke-miterlimit="10"/>
<path d="M498.028 487.806L685.13 297.852H964.94L1042.11 219.51H1225.87L1302.19 142.025" stroke="#5EE7B9" stroke-width="2" stroke-miterlimit="10"/>
<path d="M490.91 504.031C495.805 504.031 499.774 500.002 499.774 495.032C499.774 490.062 495.805 486.033 490.91 486.033C486.014 486.033 482.046 490.062 482.046 495.032C482.046 500.002 486.014 504.031 490.91 504.031Z" stroke="#5EE7B9" stroke-width="2" stroke-miterlimit="10"/>
<path d="M1308.47 144.675C1313.37 144.675 1317.35 140.637 1317.35 135.656C1317.35 130.675 1313.37 126.638 1308.47 126.638C1303.56 126.638 1299.58 130.675 1299.58 135.656C1299.58 140.637 1303.56 144.675 1308.47 144.675Z" stroke="#5EE7B9" stroke-width="2" stroke-miterlimit="10"/>
<path d="M1154.88 265.771H1242.14L1288.17 312.52" stroke="#5EE7B9" stroke-width="2" stroke-miterlimit="10"/>
<path d="M1146 274.79C1150.9 274.79 1154.88 270.752 1154.88 265.771C1154.88 260.791 1150.9 256.753 1146 256.753C1141.09 256.753 1137.12 260.791 1137.12 265.771C1137.12 270.752 1141.09 274.79 1146 274.79Z" stroke="#5EE7B9" stroke-width="2" stroke-miterlimit="10"/>
<path d="M1295.59 326.466C1300.5 326.466 1304.48 322.428 1304.48 317.448C1304.48 312.467 1300.5 308.429 1295.59 308.429C1290.69 308.429 1286.71 312.467 1286.71 317.448C1286.71 322.428 1290.69 326.466 1295.59 326.466Z" stroke="#5EE7B9" stroke-width="2" stroke-miterlimit="10"/>
<path d="M67.9727 792.428H155.231L201.258 839.157" stroke="#5EE7B9" stroke-width="2" stroke-miterlimit="10"/>
<path d="M59.1087 801.447C64.0148 801.447 67.9919 797.409 67.9919 792.428C67.9919 787.447 64.0148 783.41 59.1087 783.41C54.2027 783.41 50.2256 787.447 50.2256 792.428C50.2256 797.409 54.2027 801.447 59.1087 801.447Z" stroke="#5EE7B9" stroke-width="2" stroke-miterlimit="10"/>
<path d="M208.683 853.084C213.579 853.084 217.547 849.055 217.547 844.085C217.547 839.115 213.579 835.086 208.683 835.086C203.788 835.086 199.819 839.115 199.819 844.085C199.819 849.055 203.788 853.084 208.683 853.084Z" stroke="#5EE7B9" stroke-width="2" stroke-miterlimit="10"/>
<path d="M1083.01 305.021H1168.31L1216.39 353.833" stroke="#5EE7B9" stroke-width="2" stroke-miterlimit="10"/>
<path d="M1074.15 314.039C1079.05 314.039 1083.03 310.001 1083.03 305.02C1083.03 300.04 1079.05 296.002 1074.15 296.002C1069.24 296.002 1065.26 300.04 1065.26 305.02C1065.26 310.001 1069.24 314.039 1074.15 314.039Z" stroke="#5EE7B9" stroke-width="2" stroke-miterlimit="10"/>
<path d="M1223.45 368.325C1228.36 368.325 1232.34 364.287 1232.34 359.307C1232.34 354.326 1228.36 350.288 1223.45 350.288C1218.55 350.288 1214.57 354.326 1214.57 359.307C1214.57 364.287 1218.55 368.325 1223.45 368.325Z" stroke="#5EE7B9" stroke-width="2" stroke-miterlimit="10"/>
</g>
<defs>
<clipPath id="clip0_132_1577">
<rect width="1512" height="1113" fill="white"/>
</clipPath>
</defs>
</svg>
