<svg width="708" height="660" viewBox="0 0 708 660" fill="none" xmlns="http://www.w3.org/2000/svg">
<g clip-path="url(#clip0_132_3245)">
<path d="M-206 31.8013L-106.536 131.136H-19.4281L77.7994 228.237" stroke="#5EE7B9" stroke-width="2" stroke-miterlimit="10"/>
<path d="M82.1983 238.343C85.3577 238.343 87.919 235.785 87.919 232.63C87.919 229.474 85.3577 226.917 82.1983 226.917C79.0388 226.917 76.4775 229.474 76.4775 232.63C76.4775 235.785 79.0388 238.343 82.1983 238.343Z" stroke="#5EE7B9" stroke-width="2" stroke-miterlimit="10"/>
<path d="M-171.404 -2.13281L-83.0602 86.0959H4.04792L77.7994 159.751" stroke="#5EE7B9" stroke-width="2" stroke-miterlimit="10"/>
<path d="M82.1983 169.858C85.3577 169.858 87.919 167.3 87.919 164.144C87.919 160.989 85.3577 158.431 82.1983 158.431C79.0388 158.431 76.4775 160.989 76.4775 164.144C76.4775 167.3 79.0388 169.858 82.1983 169.858Z" stroke="#5EE7B9" stroke-width="2" stroke-miterlimit="10"/>
<path d="M161.745 164.145H256.007L426.343 -5.97021" stroke="#5EE7B9" stroke-width="2" stroke-miterlimit="10"/>
<path d="M156.024 169.858C159.183 169.858 161.745 167.3 161.745 164.144C161.745 160.989 159.183 158.431 156.024 158.431C152.864 158.431 150.303 160.989 150.303 164.144C150.303 167.3 152.864 169.858 156.024 169.858Z" stroke="#5EE7B9" stroke-width="2" stroke-miterlimit="10"/>
<path d="M231.171 103.939L345.61 -10.3511" stroke="#5EE7B9" stroke-width="2" stroke-miterlimit="10"/>
<path d="M226.736 114.008C229.888 114.008 232.444 111.456 232.444 108.307C232.444 105.159 229.888 102.606 226.736 102.606C223.583 102.606 221.027 105.159 221.027 108.307C221.027 111.456 223.583 114.008 226.736 114.008Z" stroke="#5EE7B9" stroke-width="2" stroke-miterlimit="10"/>
<path d="M-194.88 347.697H266.583L335.33 279.039" stroke="#5EE7B9" stroke-width="2" stroke-miterlimit="10"/>
<path d="M339.371 280.705C342.524 280.705 345.079 278.153 345.079 275.004C345.079 271.856 342.524 269.303 339.371 269.303C336.218 269.303 333.663 271.856 333.663 275.004C333.663 278.153 336.218 280.705 339.371 280.705Z" stroke="#5EE7B9" stroke-width="2" stroke-miterlimit="10"/>
<path d="M547.726 280.705C550.879 280.705 553.434 278.153 553.434 275.004C553.434 271.856 550.879 269.303 547.726 269.303C544.573 269.303 542.018 271.856 542.018 275.004C542.018 278.153 544.573 280.705 547.726 280.705Z" stroke="#5EE7B9" stroke-width="2" stroke-miterlimit="10"/>
<path d="M209.759 307.396L285.796 231.458H458.74L502.788 275.448H542.005" stroke="#5EE7B9" stroke-width="2" stroke-miterlimit="10"/>
<path d="M205.805 317.058C208.958 317.058 211.513 314.505 211.513 311.357C211.513 308.208 208.958 305.656 205.805 305.656C202.652 305.656 200.097 308.208 200.097 311.357C200.097 314.505 202.652 317.058 205.805 317.058Z" stroke="#5EE7B9" stroke-width="2" stroke-miterlimit="10"/>
<path d="M103.228 402.325L151.699 450.734H398.197L437.698 490.184H623.689L641.444 472.464H743.145" stroke="#5EE7B9" stroke-width="2" stroke-miterlimit="10"/>
<path d="M99.1875 404.003C102.347 404.003 104.908 401.445 104.908 398.29C104.908 395.135 102.347 392.577 99.1875 392.577C96.0281 392.577 93.4668 395.135 93.4668 398.29C93.4668 401.445 96.0281 404.003 99.1875 404.003Z" stroke="#5EE7B9" stroke-width="2" stroke-miterlimit="10"/>
<path d="M43.1289 543.898H213.75L234.952 565.073H434.028L508.051 639" stroke="#5EE7B9" stroke-width="2" stroke-miterlimit="10"/>
<path d="M37.4082 549.611C40.5677 549.611 43.1289 547.053 43.1289 543.898C43.1289 540.742 40.5677 538.185 37.4082 538.185C34.2487 538.185 31.6875 540.742 31.6875 543.898C31.6875 547.053 34.2487 549.611 37.4082 549.611Z" stroke="#5EE7B9" stroke-width="2" stroke-miterlimit="10"/>
<path d="M-194.88 398.29H5.28338L102.276 495.156H262.481L290.009 522.649H494.571L554.435 582.423" stroke="#5EE7B9" stroke-width="2" stroke-miterlimit="10"/>
<path d="M558.957 591.603C562.11 591.603 564.666 589.051 564.666 585.902C564.666 582.754 562.11 580.201 558.957 580.201C555.805 580.201 553.249 582.754 553.249 585.902C553.249 589.051 555.805 591.603 558.957 591.603Z" stroke="#5EE7B9" stroke-width="2" stroke-miterlimit="10"/>
<path d="M446.705 402.313L473.566 429.139H640.369L695.266 374.314H763.099" stroke="#5EE7B9" stroke-width="2" stroke-miterlimit="10"/>
<path d="M442.677 404.003C445.837 404.003 448.398 401.445 448.398 398.29C448.398 395.135 445.837 392.577 442.677 392.577C439.518 392.577 436.957 395.135 436.957 398.29C436.957 401.445 439.518 404.003 442.677 404.003Z" stroke="#5EE7B9" stroke-width="2" stroke-miterlimit="10"/>
<path d="M559.031 375.869L590.946 343.995H763.099" stroke="#5EE7B9" stroke-width="2" stroke-miterlimit="10"/>
<path d="M555.115 385.493C558.274 385.493 560.835 382.936 560.835 379.78C560.835 376.625 558.274 374.067 555.115 374.067C551.955 374.067 549.394 376.625 549.394 379.78C549.394 382.936 551.955 385.493 555.115 385.493Z" stroke="#5EE7B9" stroke-width="2" stroke-miterlimit="10"/>
<path d="M625.135 271.105L657.05 239.219H829.203" stroke="#5EE7B9" stroke-width="2" stroke-miterlimit="10"/>
<path d="M621.218 280.705C624.371 280.705 626.926 278.153 626.926 275.004C626.926 271.856 624.371 269.303 621.218 269.303C618.065 269.303 615.51 271.856 615.51 275.004C615.51 278.153 618.065 280.705 621.218 280.705Z" stroke="#5EE7B9" stroke-width="2" stroke-miterlimit="10"/>
<path d="M594.653 523.254L657.198 585.717H705.855L743.145 548.476" stroke="#5EE7B9" stroke-width="2" stroke-miterlimit="10"/>
<path d="M590.613 524.932C593.772 524.932 596.333 522.374 596.333 519.219C596.333 516.063 593.772 513.505 590.613 513.505C587.453 513.505 584.892 516.063 584.892 519.219C584.892 522.374 587.453 524.932 590.613 524.932Z" stroke="#5EE7B9" stroke-width="2" stroke-miterlimit="10"/>
<path d="M187.753 398.29H363.094L446.755 314.75H661.201" stroke="#5EE7B9" stroke-width="2" stroke-miterlimit="10"/>
<path d="M182.045 403.991C185.197 403.991 187.753 401.438 187.753 398.29C187.753 395.141 185.197 392.589 182.045 392.589C178.892 392.589 176.336 395.141 176.336 398.29C176.336 401.438 178.892 403.991 182.045 403.991Z" stroke="#5EE7B9" stroke-width="2" stroke-miterlimit="10"/>
<path d="M672.247 314.75C672.247 313.659 671.923 312.593 671.316 311.686C670.71 310.779 669.847 310.072 668.838 309.654C667.829 309.237 666.718 309.128 665.647 309.34C664.575 309.553 663.591 310.079 662.819 310.85C662.046 311.621 661.52 312.604 661.307 313.674C661.094 314.744 661.204 315.853 661.622 316.861C662.04 317.869 662.747 318.73 663.656 319.336C664.564 319.943 665.632 320.266 666.724 320.266C667.449 320.266 668.168 320.123 668.838 319.846C669.508 319.569 670.117 319.163 670.63 318.65C671.142 318.138 671.549 317.53 671.827 316.861C672.104 316.192 672.247 315.475 672.247 314.75V314.75Z" stroke="#5EE7B9" stroke-width="2" stroke-miterlimit="10"/>
<path d="M-194.88 304.804H61.5268L118.87 247.536V137.774L34.4183 53.4204" stroke="#5EE7B9" stroke-width="2" stroke-miterlimit="10"/>
<path d="M30.6128 54.8767C33.7723 54.8767 36.3335 52.3188 36.3335 49.1635C36.3335 46.0081 33.7723 43.4502 30.6128 43.4502C27.4533 43.4502 24.8921 46.0081 24.8921 49.1635C24.8921 52.3188 27.4533 54.8767 30.6128 54.8767Z" stroke="#5EE7B9" stroke-width="2" stroke-miterlimit="10"/>
<path d="M338.642 160.109L428.925 69.9556H570.399" stroke="#5EE7B9" stroke-width="2" stroke-miterlimit="10"/>
<path d="M334.602 169.858C337.761 169.858 340.322 167.3 340.322 164.144C340.322 160.989 337.761 158.431 334.602 158.431C331.442 158.431 328.881 160.989 328.881 164.144C328.881 167.3 331.442 169.858 334.602 169.858Z" stroke="#5EE7B9" stroke-width="2" stroke-miterlimit="10"/>
<path d="M576.12 75.6565C579.279 75.6565 581.84 73.0986 581.84 69.9433C581.84 66.7879 579.279 64.23 576.12 64.23C572.96 64.23 570.399 66.7879 570.399 69.9433C570.399 73.0986 572.96 75.6565 576.12 75.6565Z" stroke="#5EE7B9" stroke-width="2" stroke-miterlimit="10"/>
<path d="M670.826 132.456L761.097 42.3027H902.583" stroke="#5EE7B9" stroke-width="2" stroke-miterlimit="10"/>
<path d="M666.774 142.192C669.926 142.192 672.482 139.64 672.482 136.491C672.482 133.343 669.926 130.791 666.774 130.791C663.621 130.791 661.065 133.343 661.065 136.491C661.065 139.64 663.621 142.192 666.774 142.192Z" stroke="#5EE7B9" stroke-width="2" stroke-miterlimit="10"/>
<path d="M383.469 74.8667L473.74 -15.2993H615.226" stroke="#5EE7B9" stroke-width="2" stroke-miterlimit="10"/>
<path d="M379.428 84.603C382.581 84.603 385.136 82.0506 385.136 78.9021C385.136 75.7536 382.581 73.2012 379.428 73.2012C376.275 73.2012 373.72 75.7536 373.72 78.9021C373.72 82.0506 376.275 84.603 379.428 84.603Z" stroke="#5EE7B9" stroke-width="2" stroke-miterlimit="10"/>
<path d="M123.454 306.779L243.947 186.443H424.144L473.839 136.812H592.182L641.333 87.7251" stroke="#5EE7B9" stroke-width="2" stroke-miterlimit="10"/>
<path d="M118.87 317.058C122.023 317.058 124.578 314.505 124.578 311.357C124.578 308.208 122.023 305.656 118.87 305.656C115.717 305.656 113.162 308.208 113.162 311.357C113.162 314.505 115.717 317.058 118.87 317.058Z" stroke="#5EE7B9" stroke-width="2" stroke-miterlimit="10"/>
<path d="M645.373 89.3906C648.526 89.3906 651.082 86.8382 651.082 83.6897C651.082 80.5412 648.526 77.9888 645.373 77.9888C642.221 77.9888 639.665 80.5412 639.665 83.6897C639.665 86.8382 642.221 89.3906 645.373 89.3906Z" stroke="#5EE7B9" stroke-width="2" stroke-miterlimit="10"/>
<path d="M546.466 166.119H602.647L632.301 195.734" stroke="#5EE7B9" stroke-width="2" stroke-miterlimit="10"/>
<path d="M540.757 171.832C543.917 171.832 546.478 169.274 546.478 166.119C546.478 162.964 543.917 160.406 540.757 160.406C537.598 160.406 535.037 162.964 535.037 166.119C535.037 169.274 537.598 171.832 540.757 171.832Z" stroke="#5EE7B9" stroke-width="2" stroke-miterlimit="10"/>
<path d="M637.083 204.557C640.236 204.557 642.791 202.005 642.791 198.856C642.791 195.708 640.236 193.155 637.083 193.155C633.93 193.155 631.375 195.708 631.375 198.856C631.375 202.005 633.93 204.557 637.083 204.557Z" stroke="#5EE7B9" stroke-width="2" stroke-miterlimit="10"/>
<path d="M500.181 190.983H555.115L586.078 221.907" stroke="#5EE7B9" stroke-width="2" stroke-miterlimit="10"/>
</g>
<defs>
<clipPath id="clip0_132_3245">
<rect width="708" height="660" fill="white"/>
</clipPath>
</defs>
</svg>
