<svg width="18" height="25" viewBox="0 0 18 25" fill="none" xmlns="http://www.w3.org/2000/svg">
<path d="M0 4.67736C0 2.09413 2.09413 0 4.67739 0H12.7032C15.2864 0 17.3806 2.09413 17.3806 4.67736C17.3806 6.31309 16.5409 7.75273 15.2691 8.58872C16.5409 9.42476 17.3806 10.8644 17.3806 12.5001C17.3806 15.0834 15.2864 17.1775 12.7032 17.1775H12.6016C11.3906 17.1775 10.287 16.7172 9.45635 15.9621V20.2718C9.45635 22.8895 7.30747 25 4.70259 25C2.12579 25 0 22.9123 0 20.3226C0 18.687 0.839575 17.2474 2.11129 16.4114C0.839575 15.5753 0 14.1357 0 12.5001C0 10.8644 0.839648 9.42476 2.11145 8.58872C0.839648 7.75273 0 6.31309 0 4.67736ZM7.92422 9.35483H4.67739C2.94029 9.35483 1.53212 10.763 1.53212 12.5001C1.53212 14.2305 2.92943 15.6345 4.65728 15.6453C4.66396 15.6453 4.67065 15.6453 4.67739 15.6453H7.92422V9.35483ZM9.45635 12.5001C9.45635 14.2372 10.8645 15.6454 12.6016 15.6454H12.7032C14.4403 15.6454 15.8484 14.2372 15.8484 12.5001C15.8484 10.763 14.4403 9.35483 12.7032 9.35483H12.6016C10.8645 9.35483 9.45635 10.763 9.45635 12.5001ZM4.67739 17.1775C4.67065 17.1775 4.66396 17.1774 4.65728 17.1774C2.92943 17.1882 1.53212 18.5922 1.53212 20.3226C1.53212 22.0533 2.95911 23.4679 4.70259 23.4679C6.47417 23.4679 7.92422 22.0306 7.92422 20.2718V17.1775H4.67739ZM4.67739 1.53212C2.94029 1.53212 1.53212 2.9403 1.53212 4.67736C1.53212 6.41445 2.94029 7.82261 4.67739 7.82261H7.92422V1.53212H4.67739ZM9.45635 7.82261H12.7032C14.4403 7.82261 15.8484 6.41445 15.8484 4.67736C15.8484 2.9403 14.4403 1.53212 12.7032 1.53212H9.45635V7.82261Z" fill="#E7EFFF"/>
</svg>
