<svg width="25" height="25" viewBox="0 0 25 25" fill="none" xmlns="http://www.w3.org/2000/svg">
<path d="M5.61328 16.8661C8.32366 17.0508 8.9029 16.9838 8.9029 17.5324C8.9029 18.6484 5.24498 18.6518 5.24498 17.6172C5.24554 17.3331 5.42857 17.0926 5.61328 16.8661ZM7.17299 10.3571C5.37109 10.3571 5.28962 12.8387 7.13114 12.8387C8.94531 12.8387 8.90067 10.3571 7.17299 10.3571ZM25 2.67857V22.3214C25 23.0318 24.7178 23.7131 24.2155 24.2155C23.7131 24.7178 23.0318 25 22.3214 25H2.67857C1.96817 25 1.28686 24.7178 0.784535 24.2155C0.282206 23.7131 0 23.0318 0 22.3214L0 2.67857C0 1.96817 0.282206 1.28687 0.784535 0.784535C1.28686 0.282206 1.96817 0 2.67857 0H22.3214C23.0318 0 23.7131 0.282206 24.2155 0.784535C24.7178 1.28687 25 1.96817 25 2.67857ZM12.3326 6.54632C12.3326 7.35491 12.8002 7.8231 13.6083 7.8231C14.4308 7.8231 14.899 7.35491 14.899 6.54632C14.899 5.73772 14.4319 5.30134 13.6094 5.30134C12.8013 5.30134 12.3326 5.73884 12.3326 6.54632ZM11.115 9.09598H8.34989C6.9548 8.73047 3.79855 8.82533 3.79855 11.7048C3.79855 12.7539 4.3231 13.4905 5.01786 13.8315C4.1423 14.6334 3.72768 15.0112 3.72768 15.5469C3.72768 15.9302 3.88337 16.2846 4.35156 16.4821C3.85491 16.9509 3.57031 17.2902 3.57031 17.9286C3.57143 19.0485 4.54966 19.6987 7.11607 19.6987C9.5837 19.6987 11.0151 18.7773 11.0151 17.1468C11.0151 15.1004 9.43973 15.1758 5.72656 14.9492L6.1942 14.1998C7.14286 14.4643 10.3343 14.5474 10.3343 11.832C10.3343 11.1797 10.0647 10.726 9.80971 10.3996L11.1144 10.3002L11.115 9.09598ZM15.8214 15.2254L15.096 15.1261C14.8828 15.0977 14.8689 15.0703 14.8689 14.8421V8.95759H11.9336L11.7779 10.1055C12.6568 10.4152 12.7266 10.3767 12.7266 10.673V14.8438C12.7266 15.1574 12.7093 15.0993 11.7779 15.2271V16.3465H15.8192L15.8214 15.2254ZM21.4286 15.7924L21.0452 14.5441C18.7612 15.4018 18.933 13.8516 18.933 13.6105V10.2221H21.0452V8.80413H19.0463C18.8862 8.80413 18.9347 8.94475 18.9347 6.64844H17.5854C17.4297 8.1942 16.9336 8.81808 15.6881 8.95982V10.2221C16.8304 10.2221 16.7941 10.1747 16.7941 10.3638V14.0787C16.7941 15.6814 17.4319 16.3616 19.1194 16.3616C19.9258 16.3616 20.8186 16.0921 21.4286 15.7924Z" fill="#E7EFFF"/>
</svg>
