<svg width="22" height="25" viewBox="0 0 22 25" fill="none" xmlns="http://www.w3.org/2000/svg">
<path d="M21.8594 0.176206C21.759 0.0636891 21.6146 0 21.4639 0H0.536054C0.385403 0 0.241029 0.0636891 0.140596 0.176206C0.038069 0.288723 -0.0121478 0.439453 0.00249888 0.592306L1.88772 22.0194C1.90656 22.2444 2.06139 22.4312 2.27481 22.4949L10.8514 24.9788C10.8975 24.9936 10.9477 25 10.9979 25C11.0481 25 11.0962 24.9936 11.1444 24.9788L19.7273 22.4949C19.9407 22.4312 20.0934 22.2444 20.1144 22.0194L21.9975 0.592306C22.0121 0.439453 21.9619 0.288723 21.8594 0.176206ZM17.3462 7.56411H7.2693L7.50993 10.3303H17.1034L16.3837 18.5059L10.9958 20.1575L10.9435 20.1405L5.61842 18.5037L5.32758 15.1728H7.93677L8.04976 16.4657L11.0272 17.0983L13.9502 16.4657L14.262 12.9671H5.13299L4.42368 4.92103H17.5784L17.3462 7.56411Z" fill="#E7EFFF"/>
</svg>
