<svg width="29" height="25" viewBox="0 0 29 25" fill="none" xmlns="http://www.w3.org/2000/svg">
<path d="M23.3371 8.10155C23.0357 8.00111 22.7344 7.90625 22.433 7.81697C22.4833 7.6105 22.5279 7.40404 22.5725 7.19758C23.2589 3.87186 22.8069 1.19902 21.2835 0.317366C19.8158 -0.525223 17.4219 0.350846 15 2.46011C14.76 2.66657 14.5257 2.88419 14.3025 3.10181C14.1518 2.95673 13.9955 2.81165 13.8393 2.67215C11.3002 0.417807 8.75558 -0.530803 7.23214 0.356426C5.77009 1.2046 5.33482 3.7212 5.94866 6.86836C6.01004 7.18084 6.07701 7.48774 6.15513 7.80022C5.79799 7.90067 5.44643 8.01227 5.11719 8.12945C2.13728 9.16176 0 10.7911 0 12.4763C0 14.2173 2.27679 15.9639 5.37388 17.0241C5.625 17.1078 5.87612 17.1915 6.13281 17.264C6.04911 17.5988 5.97656 17.928 5.9096 18.2684C5.32366 21.3653 5.78125 23.8206 7.2433 24.6632C8.75 25.5337 11.2835 24.6408 13.75 22.4814C13.9453 22.3084 14.1406 22.1298 14.3359 21.9401C14.5815 22.18 14.8382 22.4088 15.0949 22.632C17.4833 24.6855 19.8438 25.5169 21.3002 24.6743C22.8069 23.8038 23.298 21.1645 22.6618 17.9504C22.6116 17.7048 22.5558 17.4537 22.4944 17.197C22.673 17.1468 22.846 17.091 23.019 17.0352C26.2388 15.9694 28.5714 14.2452 28.5714 12.4763C28.5714 10.7856 26.3728 9.14502 23.3371 8.10155ZM15.7868 3.36408C17.8627 1.55614 19.7991 0.847471 20.6808 1.35526C21.6239 1.89652 21.9866 4.08391 21.3951 6.95764C21.356 7.14736 21.317 7.3315 21.2667 7.51564C20.0279 7.23664 18.7723 7.03576 17.5112 6.92416C16.7857 5.88626 15.9933 4.89301 15.1339 3.96114C15.3516 3.75468 15.5636 3.55938 15.7868 3.36408ZM9.33036 15.3724C9.61495 15.8578 9.90513 16.3433 10.2121 16.8176C9.34152 16.7227 8.47656 16.5832 7.62277 16.3991C7.8683 15.5956 8.17522 14.7641 8.53237 13.916C8.78906 14.407 9.05134 14.8925 9.33036 15.3724ZM7.63951 8.65955C8.44308 8.48099 9.29688 8.33591 10.1842 8.22431C9.88839 8.68745 9.59821 9.16176 9.32478 9.64164C9.05134 10.1159 8.78348 10.6014 8.53237 11.0925C8.1808 10.261 7.88504 9.44634 7.63951 8.65955ZM9.16853 12.5042C9.53683 11.7342 9.93862 10.9809 10.3627 10.2387C10.7868 9.49656 11.2444 8.77674 11.7243 8.06807C12.5614 8.00669 13.4152 7.97321 14.2857 7.97321C15.1562 7.97321 16.0156 8.00669 16.8471 8.06807C17.3214 8.77116 17.7734 9.49098 18.2031 10.2276C18.6328 10.9641 19.0346 11.7174 19.4141 12.4819C19.0402 13.2519 18.6384 14.0108 18.2087 14.7586C17.7846 15.5007 17.3326 16.2205 16.8583 16.9348C16.0268 16.9962 15.1618 17.0241 14.2857 17.0241C13.4096 17.0241 12.5614 16.9962 11.7411 16.9459C11.2556 16.2373 10.798 15.5119 10.3683 14.7697C9.93862 14.0276 9.54241 13.2743 9.16853 12.5042ZM19.2467 15.3612C19.5312 14.8702 19.7991 14.3735 20.0614 13.8713C20.4185 14.6804 20.731 15.5007 21.0045 16.3433C20.1395 16.5386 19.2634 16.6893 18.3817 16.7897C18.683 16.321 18.9676 15.8411 19.2467 15.3612ZM20.0502 11.0925C19.7879 10.6014 19.5201 10.1104 19.2411 9.63048C18.9676 9.15618 18.683 8.68745 18.3873 8.22431C19.2857 8.33591 20.1451 8.48657 20.9487 8.67071C20.692 9.49656 20.3906 10.3001 20.0502 11.0925ZM14.2969 4.81489C14.8828 5.45102 15.4353 6.12063 15.9487 6.81255C14.8438 6.76233 13.7333 6.76233 12.6283 6.81255C13.1752 6.09273 13.7388 5.42312 14.2969 4.81489ZM7.82366 1.39432C8.76116 0.847471 10.8426 1.62868 13.0357 3.57054C13.1752 3.6933 13.3147 3.82722 13.4598 3.96114C12.5949 4.89301 11.7969 5.88626 11.0658 6.92416C9.80469 7.03576 8.55469 7.23106 7.31585 7.50448C7.2433 7.2199 7.18192 6.92974 7.12054 6.63957C6.59598 3.93882 6.94196 1.9021 7.82366 1.39432ZM6.45647 16.1034C6.2221 16.0364 5.9933 15.9639 5.76451 15.8857C4.57589 15.5119 3.22545 14.9204 2.24888 14.1448C1.68527 13.7541 1.3058 13.1515 1.19978 12.4763C1.19978 11.4552 2.96317 10.1494 5.50781 9.2622C5.82589 9.1506 6.14955 9.05016 6.47321 8.9553C6.85268 10.1662 7.31027 11.3547 7.8404 12.5042C7.30469 13.6704 6.84152 14.8757 6.45647 16.1034ZM12.9632 21.5718C12.0424 22.4144 10.9766 23.084 9.81585 23.5416C9.19643 23.8373 8.48214 23.8652 7.84598 23.6141C6.95871 23.1007 6.5904 21.131 7.09263 18.4805C7.15402 18.168 7.22098 17.8555 7.29911 17.5486C8.54911 17.8164 9.81027 18.0006 11.0882 18.0954C11.8248 19.1389 12.6339 20.1377 13.4989 21.0752C13.3203 21.2482 13.1417 21.4156 12.9632 21.5718ZM14.3304 20.2159C13.7612 19.602 13.192 18.9213 12.6395 18.1903C13.1752 18.2126 13.7277 18.2238 14.2857 18.2238C14.8605 18.2238 15.4241 18.2126 15.9821 18.1847C15.4688 18.8934 14.9163 19.5686 14.3304 20.2159ZM21.6239 21.8899C21.5737 22.5706 21.2388 23.2068 20.7031 23.6364C19.8158 24.1498 17.9241 23.4802 15.8817 21.7281C15.6473 21.5272 15.4129 21.3095 15.173 21.0863C16.0268 20.1433 16.8136 19.1445 17.5279 18.0954C18.8058 17.9894 20.0781 17.7941 21.3337 17.5095C21.3895 17.7383 21.4397 17.9671 21.4844 18.1903C21.7578 19.3956 21.8025 20.6511 21.6239 21.8899ZM22.6395 15.8913C22.4833 15.9415 22.327 15.9918 22.1652 16.0364C21.7746 14.8199 21.2946 13.6314 20.7422 12.4763C21.2779 11.338 21.7299 10.1662 22.1094 8.96646C22.3996 9.05016 22.6786 9.13944 22.9464 9.22872C25.5469 10.1215 27.3717 11.4496 27.3717 12.4652C27.3717 13.5588 25.4241 14.9706 22.6395 15.8913ZM14.2857 15.0543C15.6975 15.0543 16.8415 13.9104 16.8415 12.4986C16.8415 11.0869 15.6975 9.94297 14.2857 9.94297C12.8739 9.94297 11.7299 11.0869 11.7299 12.4986C11.7299 13.9104 12.8739 15.0543 14.2857 15.0543Z" fill="white"/>
</svg>
