<svg width="34" height="25" viewBox="0 0 34 25" fill="none" xmlns="http://www.w3.org/2000/svg">
<path d="M15.7194 18.9003C15.7037 18.9316 15.6881 18.9566 15.7194 18.9003V18.9003ZM28.6938 14.3694C27.6464 14.3691 26.6129 14.6097 25.6732 15.0725C25.366 14.4528 25.0483 13.9111 24.9962 13.5049C24.9337 13.031 24.866 12.7498 24.9389 12.1873C25.0118 11.6249 25.3399 10.8281 25.3347 10.7708C25.3295 10.7135 25.2618 10.4271 24.59 10.4218C23.9182 10.4166 23.3401 10.552 23.2729 10.7291C23.1543 11.0527 23.062 11.3854 22.9969 11.7238C22.8771 12.3331 21.6538 14.5101 20.9611 15.6454C20.732 15.2027 20.5393 14.8121 20.4976 14.4996C20.4351 14.0257 20.3674 13.7445 20.4403 13.182C20.5132 12.6196 20.8413 11.8228 20.8361 11.7655C20.8309 11.7082 20.7632 11.4218 20.0919 11.4166C19.4206 11.4113 18.842 11.5468 18.7743 11.7238C18.7066 11.9009 18.6337 12.3175 18.4983 12.7185C18.3629 13.1195 16.7333 16.7442 16.3068 17.6869C16.0881 18.166 15.9006 18.5514 15.7652 18.8118C15.7444 18.8535 15.7287 18.8795 15.7183 18.9003C15.7339 18.8743 15.7444 18.8482 15.7444 18.8587C15.6298 19.0826 15.5621 19.2076 15.5621 19.2076V19.2128C15.4736 19.3794 15.3746 19.5305 15.3277 19.5305C15.2965 19.5305 15.2288 19.093 15.3434 18.4941C15.5881 17.2338 16.1662 15.2756 16.161 15.2079C16.1558 15.1715 16.2704 14.8329 15.7808 14.6507C15.3069 14.4788 15.135 14.7652 15.0934 14.7652C15.0517 14.7652 15.0205 14.8694 15.0205 14.8694C15.0205 14.8694 15.5465 12.6612 14.0107 12.6612C13.0524 12.6612 11.7192 13.7132 11.064 14.6663C10.6526 14.8902 9.76204 15.3746 8.82462 15.8902C8.46527 16.0881 8.09551 16.2912 7.74658 16.4839C7.72054 16.4578 7.69971 16.4318 7.67367 16.4057C5.80976 14.4163 2.36837 13.0102 2.51419 10.3385C2.56627 9.36464 2.90479 6.80756 9.13188 3.70364C14.2356 1.16218 18.316 1.86004 19.0186 3.412C20.0289 5.62536 16.837 9.74482 11.5369 10.3385C9.51675 10.5625 8.45485 9.78127 8.18925 9.48963C7.91323 9.18236 7.87157 9.16674 7.76741 9.22403C7.59555 9.31777 7.70492 9.58858 7.76741 9.75003C7.92365 10.1615 8.57464 10.8906 9.6834 11.2551C10.6573 11.5728 13.0258 11.7499 15.8897 10.6406C19.1071 9.4011 21.6116 5.94825 20.8773 3.05786C20.1294 0.120603 15.259 -0.842861 10.6536 0.792423C7.90959 1.7663 4.94212 3.29743 2.8074 5.29206C0.271667 7.66686 -0.134029 9.7344 0.0326243 10.5989C0.625805 13.6664 4.85359 15.6662 6.54564 17.1453C6.46231 17.1921 6.38419 17.2338 6.31128 17.2755C5.46291 17.6973 2.23974 19.3847 1.43303 21.1658C0.521647 23.1864 1.58406 24.6342 2.2814 24.8321C4.45779 25.4362 6.68625 24.3478 7.88355 22.5615C9.08085 20.7752 8.93554 18.442 8.38351 17.3796C8.3783 17.364 8.36788 17.3536 8.36267 17.3379C8.58141 17.2078 8.80535 17.0776 9.02929 16.9474C9.46102 16.6922 9.88286 16.4578 10.2526 16.2547C10.0443 16.8172 9.89328 17.4942 9.81516 18.4733C9.72142 19.619 10.1953 21.1033 10.8099 21.6866C11.0807 21.9417 11.4083 21.9469 11.6114 21.9469C12.3301 21.9469 12.653 21.3532 13.0118 20.645C13.4544 19.7805 13.845 18.7753 13.845 18.7753C13.845 18.7753 13.3555 21.4939 14.6939 21.4939C15.183 21.4939 15.6725 20.8637 15.8917 20.5408V20.546C15.8917 20.546 15.9022 20.5252 15.9282 20.4835C15.9803 20.4054 16.0063 20.3585 16.0063 20.3585V20.3429C16.2042 20.0044 16.6365 19.2284 17.2869 17.9473C18.1306 16.2912 18.9373 14.2236 18.9373 14.2236C19.0153 14.6781 19.1232 15.127 19.2602 15.5673C19.406 16.062 19.7133 16.6036 19.9581 17.1296C19.7602 17.4004 19.6404 17.5567 19.6404 17.5567C19.6408 17.5607 19.6426 17.5644 19.6456 17.5671C19.4894 17.7754 19.3123 17.9994 19.13 18.2181C18.4639 19.0097 17.6718 19.9159 17.5677 20.1763C17.4427 20.4835 17.4739 20.7127 17.7135 20.8897C17.8905 21.0251 18.203 21.046 18.5306 21.0199C19.1295 20.9783 19.5513 20.8325 19.7545 20.7387C20.1289 20.6044 20.4828 20.4186 20.8059 20.1867C21.4569 19.7075 21.8527 19.0201 21.8163 18.1139C21.7954 17.614 21.634 17.114 21.4361 16.6453C21.4934 16.562 21.5559 16.4734 21.6132 16.3849C22.6438 14.8798 23.4406 13.2279 23.4406 13.2279C23.5186 13.6824 23.6264 14.1312 23.7635 14.5715C23.8885 14.9933 24.1327 15.4569 24.3567 15.9099C23.3885 16.6963 22.7896 17.6077 22.5813 18.2066C22.1959 19.3159 22.498 19.8159 23.0656 19.9304C23.3208 19.9825 23.6854 19.8627 23.9562 19.7482C24.3584 19.6142 24.7376 19.4192 25.0806 19.1701C25.7316 18.691 26.3612 18.0191 26.3195 17.1078C26.3039 16.6963 26.1893 16.2849 26.0383 15.8891C26.856 15.5454 27.9179 15.3579 29.2719 15.5141C32.1717 15.8527 32.7393 17.665 32.63 18.4202C32.5206 19.1753 31.9113 19.5971 31.7082 19.7221C31.5051 19.8471 31.4426 19.894 31.4582 19.9877C31.4842 20.1231 31.578 20.1179 31.7498 20.0867C31.9894 20.045 33.27 19.4722 33.3273 18.0712C33.4106 16.3005 31.7082 14.3528 28.6923 14.3684L28.6938 14.3694ZM6.34253 21.9053C5.38479 22.9521 4.04115 23.3479 3.46359 23.0146C2.84385 22.6542 3.08863 21.1137 4.2703 19.9981C4.98899 19.3211 5.91548 18.6962 6.53001 18.3108C6.67063 18.2275 6.87373 18.1025 7.12371 17.9514C7.16538 17.9254 7.18621 17.915 7.18621 17.915C7.23308 17.8837 7.28516 17.8577 7.33724 17.8265C7.76897 19.4097 7.35286 20.8054 6.34253 21.9042V21.9053ZM13.3399 17.1453C13.0066 17.9629 12.304 20.0461 11.877 19.9367C11.5124 19.843 11.2885 18.2545 11.8041 16.6922C12.0645 15.9058 12.6165 14.9684 12.9446 14.6038C13.4701 14.0153 14.0482 13.8278 14.1836 14.0622C14.3658 14.3694 13.5482 16.6349 13.3399 17.1453ZM19.1207 19.9054C18.98 19.9784 18.8498 20.0252 18.7873 19.9888C18.7405 19.9627 18.8446 19.8638 18.8446 19.8638C18.8446 19.8638 19.5685 19.0878 19.855 18.7337C20.0216 18.5254 20.2143 18.2806 20.4221 18.0098C20.4221 18.0358 20.4273 18.0618 20.4273 18.0931C20.4205 19.0253 19.5253 19.6555 19.1191 19.9054H19.1207ZM23.5776 18.8899C23.4734 18.817 23.489 18.5722 23.838 17.8119C23.9734 17.515 24.2853 17.0151 24.8275 16.5359C24.8888 16.7173 24.9222 16.907 24.9264 17.0984C24.9212 18.2702 24.0827 18.7076 23.5781 18.8899H23.5776Z" fill="#E7EFFF"/>
</svg>
