<svg width="25" height="25" viewBox="0 0 25 25" fill="none" xmlns="http://www.w3.org/2000/svg">
<path d="M19.8538 16.996C17.8881 17.4647 17.4143 18.6139 14.6119 19.3851C14.6119 19.3851 14.4758 19.5867 14.0877 19.6774C13.4123 19.8438 10.8669 19.9798 10.6351 19.9849C10.0101 19.9899 9.63206 19.8236 9.52621 19.5716C9.20363 18.8004 9.98992 18.4627 9.98992 18.4627C9.58165 18.2107 9.53629 17.9637 9.49597 18.0544C9.375 18.3468 9.31452 19.0675 8.9869 19.3901C8.54335 19.8387 7.70161 19.6875 7.20766 19.4304C6.66331 19.1431 7.24798 18.4627 7.24798 18.4627C7.24798 18.4627 6.95565 18.6341 6.71875 18.2812C6.41633 17.8125 5.85685 16.4012 7.29839 15.1563C7.23286 14.6472 7.06653 12.4496 9.34476 10.8417C9.34476 10.8417 8.30645 9.69254 8.69456 8.65927C8.94657 7.98387 9.04738 7.98891 9.12802 7.95867C9.41532 7.84778 9.69758 7.72681 9.90423 7.5C10.9425 6.38105 12.2631 6.59274 12.2631 6.59274C12.2631 6.59274 12.8881 4.6875 13.4677 5.06048C13.6442 5.17641 14.2893 6.60282 14.2893 6.60282C14.2893 6.60282 14.9748 6.20464 15.0504 6.35081C15.4637 7.15726 15.5141 8.69456 15.3327 9.63206C15.0252 11.1744 14.254 12.006 13.9415 12.5302C13.871 12.6512 14.7732 13.0343 15.3427 14.6119C15.8669 16.0534 15.3982 17.2681 15.4839 17.3992C15.5242 17.4698 16.1744 17.4395 17.3185 16.7339C17.9637 16.3357 18.7349 15.8821 19.6069 15.877C20.4486 15.8518 20.494 16.8448 19.8538 16.996ZM25 12.5C25 19.4002 19.4002 25 12.5 25C5.5998 25 0 19.4002 0 12.5C0 5.5998 5.5998 0 12.5 0C19.4002 0 25 5.5998 25 12.5ZM21.003 16.2903C20.9173 15.6048 20.3377 15.131 19.5917 15.1411C18.4829 15.1562 17.5504 15.7308 16.9304 16.1089C16.6885 16.2601 16.4819 16.371 16.3054 16.4516C16.4617 14.2087 15.1714 12.7671 14.8589 12.4496C15.252 11.88 15.7863 11.0484 16.0383 9.76815C16.255 8.6744 16.1895 6.97077 15.6905 6.0131C15.6099 5.85685 15.3175 5.44859 14.6321 5.64012C14.1431 4.63206 13.9768 4.52621 13.8458 4.44052C13.7903 4.40524 12.6562 3.61391 11.7591 5.85181C11.1442 5.89718 10.1815 6.11895 9.36492 7.00101C9.26411 7.1119 9.06754 7.19254 8.85585 7.27319H8.86089C8.4375 7.4244 8.24093 7.77218 8.00907 8.39718C7.68145 9.27419 8.01915 10.1411 8.35181 10.7006C7.45464 11.502 6.4869 12.7067 6.55242 14.8589C4.83871 16.6734 5.95766 18.5383 6.27016 18.871C6.18952 19.4304 6.45665 19.8488 6.875 20.0706C7.51008 20.4083 8.40222 20.5544 9.0877 20.2117C9.33468 20.4738 9.78327 20.7208 10.5998 20.7208C10.9425 20.7208 13.5232 20.5746 14.2591 20.3931C14.6018 20.3125 14.8387 20.1663 14.995 20.0353C15.4889 19.879 16.8498 19.4153 18.13 18.5887C19.0373 17.999 19.3498 17.873 20.0252 17.7117C20.6754 17.5504 21.0837 16.9506 21.003 16.2903Z" fill="white"/>
</svg>
